<svg width="256" height="60" viewBox="0 0 256 60" fill="none" xmlns="http://www.w3.org/2000/svg">
<path d="M41.7156 39.9715L45.5156 33.2953L57 53.3238H64.6C62.9111 50.5849 46.8667 22.7675 45.5156 20.0285L28.9644 49.1298L22.8 60H0C1.26667 57.8602 9.79556 42.796 17.9867 28.331C22.8 19.8573 28.12 10.3566 34.1156 0H41.7156L26.0089 27.5606L11.4 53.3238H19C29.3867 34.7504 35.8889 23.7946 45.5156 6.67618C46.1067 7.70328 75.8311 59.9144 76 60H53.2L41.7156 39.9715Z" fill="#D542D7"/>
<path d="M107.425 33.3368H112.68V59.1777L82.2559 42.8738V59.5397H77V33.6988L107.424 50.0027V33.3368H107.425ZM125.368 59.5948H120.163V33.6506H125.368V59.5948ZM150.72 45.9008L168.56 33.6979V59.5388H163.304V43.7745L150.72 52.3817L138.136 43.7745V59.5388H132.88V33.6979L150.72 45.9008ZM194.324 32L214.868 60H208.262L202.518 52.1963H186.131L180.47 60H173.938L194.324 32ZM190.072 46.803H198.576L194.324 40.9866L190.072 46.803ZM252.685 48.6498C254.864 50.902 256.041 53.7734 255.999 56.7356L255.961 59.4315L250.705 59.3531L250.744 56.6571C250.765 55.1358 250.147 53.681 248.955 52.4491C246.76 50.1812 242.932 48.9561 238.179 48.9876C233.326 49.0239 229.457 50.2983 227.285 52.5763C226.146 53.7717 225.554 55.1825 225.575 56.6569L225.613 59.3529L220.358 59.4313L220.32 56.7353C220.279 53.8347 221.419 51.0182 223.529 48.8053C224.331 47.9635 225.408 47.0628 226.829 46.2506C225.604 45.5569 224.518 44.7308 223.596 43.7784C221.417 41.5261 220.24 38.6548 220.282 35.6926L220.32 32.9967L225.575 33.0751L225.537 35.771C225.515 37.2923 226.134 38.7472 227.326 39.9791C229.52 42.2469 233.349 43.4789 238.102 43.4406C242.954 43.4042 246.823 42.1298 248.995 39.8518C250.135 38.6567 250.726 37.2457 250.705 35.7712L250.667 33.0753L255.922 32.9969L255.961 35.6928C256.002 38.5937 254.862 41.41 252.752 43.6229C251.949 44.4641 250.873 45.3647 249.453 46.1769C250.678 46.8708 251.763 47.6973 252.685 48.6495L252.685 48.6498Z" fill="#170317"/>
</svg>
