<svg width="285" height="549" viewBox="0 0 285 549" fill="none" xmlns="http://www.w3.org/2000/svg">
<g filter="url(#filter0_d_2505_12727)">
<mask id="path-1-outside-1_2505_12727" maskUnits="userSpaceOnUse" x="22" y="0" width="263" height="531" fill="black">
<rect fill="white" x="22" width="263" height="531"/>
<path d="M235.223 47.0896L215.117 415.534C214.654 427.549 213.73 439.119 212.343 450.243C210.957 461.368 209.801 469.822 208.877 475.607C216.272 474.717 225.516 474.272 236.61 474.272C248.165 473.827 256.254 473.605 260.876 473.605L258.103 525H61.1994L63.2794 480.947C73.9103 480.502 82.9235 479.167 90.3189 476.942C97.7143 474.717 103.492 469.6 107.652 461.59C112.274 453.58 115.047 440.676 115.972 422.877L130.532 155.22L52.1863 198.606L30 158.558L192.93 47.0896H235.223Z"/>
<path d="M251.594 6L230.114 399.618C229.621 412.454 228.633 424.813 227.152 436.698C225.67 448.583 224.436 457.615 223.448 463.795C231.349 462.844 241.225 462.369 253.076 462.369C265.421 461.893 274.062 461.656 279 461.656L276.037 516.563H65.6811L67.9032 469.5C79.2604 469.024 88.8894 467.598 96.7901 465.221C104.691 462.844 110.863 457.377 115.307 448.82C120.245 440.263 123.208 426.477 124.196 407.462L139.75 121.518L56.0521 167.868L32.35 125.084L206.412 6H251.594Z"/>
</mask>
<path d="M235.223 47.0896L215.117 415.534C214.654 427.549 213.73 439.119 212.343 450.243C210.957 461.368 209.801 469.822 208.877 475.607C216.272 474.717 225.516 474.272 236.61 474.272C248.165 473.827 256.254 473.605 260.876 473.605L258.103 525H61.1994L63.2794 480.947C73.9103 480.502 82.9235 479.167 90.3189 476.942C97.7143 474.717 103.492 469.6 107.652 461.59C112.274 453.58 115.047 440.676 115.972 422.877L130.532 155.22L52.1863 198.606L30 158.558L192.93 47.0896H235.223Z" fill="#E381E4" shape-rendering="crispEdges"/>
<path d="M235.223 47.0896L240.557 47.3807L240.864 41.748H235.223V47.0896ZM215.117 415.534L209.783 415.243L209.781 415.286L209.779 415.329L215.117 415.534ZM212.343 450.243L207.043 449.582L212.343 450.243ZM208.877 475.607L203.602 474.764L202.485 481.756L209.515 480.91L208.877 475.607ZM236.61 474.272V479.614H236.712L236.815 479.61L236.61 474.272ZM260.876 473.605L266.21 473.892L266.513 468.263H260.876V473.605ZM258.103 525V530.342H263.164L263.436 525.288L258.103 525ZM61.1994 525L55.8638 524.748L55.5997 530.342H61.1994V525ZM63.2794 480.947L63.056 475.61L58.1742 475.814L57.9437 480.695L63.2794 480.947ZM90.3189 476.942L88.78 471.827L90.3189 476.942ZM107.652 461.59L103.025 458.92L102.966 459.023L102.912 459.128L107.652 461.59ZM115.972 422.877L110.638 422.587L110.637 422.6L115.972 422.877ZM130.532 155.22L135.865 155.51L136.39 145.87L127.944 150.547L130.532 155.22ZM52.1863 198.606L47.5137 201.194L50.1018 205.866L54.774 203.279L52.1863 198.606ZM30 158.558L26.9839 154.149L22.9718 156.894L25.3275 161.146L30 158.558ZM192.93 47.0896V41.748H191.278L189.914 42.681L192.93 47.0896ZM251.594 6L256.928 6.29106L257.235 0.658385H251.594V6ZM230.114 399.618L224.781 399.327L224.778 399.37L224.777 399.413L230.114 399.618ZM227.152 436.698L221.851 436.037L227.152 436.698ZM223.448 463.795L218.174 462.952L217.056 469.944L224.086 469.098L223.448 463.795ZM253.076 462.369V467.71H253.179L253.281 467.707L253.076 462.369ZM279 461.656L284.334 461.944L284.638 456.314H279V461.656ZM276.037 516.563V521.904H281.098L281.371 516.85L276.037 516.563ZM65.6811 516.563L60.3454 516.311L60.0813 521.904H65.6811V516.563ZM67.9032 469.5L67.6798 464.163L62.7979 464.367L62.5675 469.248L67.9032 469.5ZM96.7901 465.221L95.2512 460.106L96.7901 465.221ZM115.307 448.82L110.681 446.151L110.622 446.253L110.567 446.358L115.307 448.82ZM124.196 407.462L118.862 407.172L118.861 407.185L124.196 407.462ZM139.75 121.518L145.084 121.808L145.608 112.168L137.162 116.845L139.75 121.518ZM56.0521 167.868L51.3796 170.457L53.9677 175.129L58.6399 172.541L56.0521 167.868ZM32.35 125.084L29.3339 120.675L25.3218 123.42L27.6775 127.672L32.35 125.084ZM206.412 6V0.658385H204.76L203.396 1.59139L206.412 6ZM229.889 46.7986L209.783 415.243L220.45 415.826L240.557 47.3807L229.889 46.7986ZM209.779 415.329C209.322 427.202 208.409 438.619 207.043 449.582L217.644 450.904C219.051 439.618 219.987 427.896 220.454 415.74L209.779 415.329ZM207.043 449.582C205.658 460.69 204.512 469.072 203.602 474.764L214.151 476.45C215.091 470.573 216.255 462.045 217.644 450.904L207.043 449.582ZM209.515 480.91C216.623 480.055 225.637 479.614 236.61 479.614V468.93C225.395 468.93 215.921 469.379 208.239 470.304L209.515 480.91ZM236.815 479.61C248.373 479.165 256.368 478.946 260.876 478.946V468.263C256.139 468.263 247.957 468.49 236.404 468.934L236.815 479.61ZM255.542 473.317L252.769 524.712L263.436 525.288L266.21 473.892L255.542 473.317ZM258.103 519.658H61.1994V530.342H258.103V519.658ZM66.5351 525.252L68.6151 481.199L57.9437 480.695L55.8638 524.748L66.5351 525.252ZM63.5028 486.284C74.425 485.827 83.9084 484.449 91.8578 482.057L88.78 471.827C81.9386 473.885 73.3957 475.177 63.056 475.61L63.5028 486.284ZM91.8578 482.057C100.869 479.346 107.689 473.108 112.392 464.052L102.912 459.128C99.295 466.091 94.56 470.088 88.78 471.827L91.8578 482.057ZM112.278 464.26C117.556 455.115 120.371 441.152 121.306 423.154L110.637 422.6C109.723 440.199 106.992 452.046 103.025 458.92L112.278 464.26ZM121.306 423.167L135.865 155.51L125.198 154.93L110.638 422.587L121.306 423.167ZM127.944 150.547L49.5985 193.933L54.774 203.279L133.119 159.893L127.944 150.547ZM56.8588 196.017L34.6725 155.969L25.3275 161.146L47.5137 201.194L56.8588 196.017ZM33.0161 162.966L195.947 51.4982L189.914 42.681L26.9839 154.149L33.0161 162.966ZM192.93 52.4312H235.223V41.748H192.93V52.4312ZM246.261 5.70894L224.781 399.327L235.448 399.909L256.928 6.29106L246.261 5.70894ZM224.777 399.413C224.288 412.107 223.312 424.314 221.851 436.037L232.452 437.359C233.954 425.313 234.953 412.8 235.452 399.823L224.777 399.413ZM221.851 436.037C220.372 447.905 219.146 456.865 218.174 462.952L228.723 464.638C229.725 458.365 230.969 449.26 232.452 437.359L221.851 436.037ZM224.086 469.098C231.7 468.182 241.346 467.71 253.076 467.71V457.027C241.104 457.027 230.998 457.506 222.81 458.492L224.086 469.098ZM253.281 467.707C265.629 467.231 274.177 466.997 279 466.997V456.314C273.947 456.314 265.212 456.556 252.87 457.031L253.281 467.707ZM273.666 461.368L270.703 516.275L281.371 516.85L284.334 461.944L273.666 461.368ZM276.037 511.221H65.6811V521.904H276.037V511.221ZM71.0168 516.815L73.2388 469.752L62.5675 469.248L60.3454 516.311L71.0168 516.815ZM68.1266 474.837C79.7751 474.349 89.8743 472.88 98.329 470.336L95.2512 460.106C87.9045 462.316 78.7458 463.699 67.6798 464.163L68.1266 474.837ZM98.329 470.336C107.845 467.473 115.06 460.886 120.048 451.282L110.567 446.358C106.666 453.869 101.536 458.215 95.2512 460.106L98.329 470.336ZM119.934 451.49C125.527 441.798 128.532 426.954 129.53 407.739L118.861 407.185C117.884 426.001 114.963 438.729 110.681 446.151L119.934 451.49ZM129.529 407.752L145.084 121.808L134.416 121.228L118.862 407.172L129.529 407.752ZM137.162 116.845L53.4644 163.195L58.6399 172.541L142.338 126.191L137.162 116.845ZM60.7246 165.28L37.0226 122.495L27.6775 127.672L51.3796 170.457L60.7246 165.28ZM35.3662 129.492L209.428 10.4086L203.396 1.59139L29.3339 120.675L35.3662 129.492ZM206.412 11.3416H251.594V0.658385H206.412V11.3416Z" fill="#E381E4" mask="url(#path-1-outside-1_2505_12727)"/>
</g>
<defs>
<filter id="filter0_d_2505_12727" x="0.97168" y="0.658203" width="283.666" height="547.684" filterUnits="userSpaceOnUse" color-interpolation-filters="sRGB">
<feFlood flood-opacity="0" result="BackgroundImageFix"/>
<feColorMatrix in="SourceAlpha" type="matrix" values="0 0 0 0 0 0 0 0 0 0 0 0 0 0 0 0 0 0 127 0" result="hardAlpha"/>
<feOffset dx="-14" dy="10"/>
<feGaussianBlur stdDeviation="4"/>
<feComposite in2="hardAlpha" operator="out"/>
<feColorMatrix type="matrix" values="0 0 0 0 0.239317 0 0 0 0 0.0090625 0 0 0 0 0.241667 0 0 0 0.25 0"/>
<feBlend mode="normal" in2="BackgroundImageFix" result="effect1_dropShadow_2505_12727"/>
<feBlend mode="normal" in="SourceGraphic" in2="effect1_dropShadow_2505_12727" result="shape"/>
</filter>
</defs>
</svg>
