<svg width="24" height="24" viewBox="0 0 24 24" fill="none" xmlns="http://www.w3.org/2000/svg">
<g clip-path="url(#clip0_2086_10984)">
<path d="M7.55016 21.7507C16.6045 21.7507 21.5583 14.2474 21.5583 7.74259C21.5583 7.53166 21.5536 7.31603 21.5442 7.10509C22.5079 6.40819 23.3395 5.54499 24 4.55603C23.1025 4.95533 22.1496 5.21611 21.1739 5.32947C22.2013 4.71364 22.9705 3.7462 23.3391 2.6065C22.3726 3.17929 21.3156 3.58334 20.2134 3.80134C19.4708 3.01229 18.489 2.48985 17.4197 2.31478C16.3504 2.13972 15.2532 2.32178 14.2977 2.83283C13.3423 3.34387 12.5818 4.15544 12.1338 5.14204C11.6859 6.12865 11.5754 7.23535 11.8195 8.29103C9.86249 8.19282 7.94794 7.68444 6.19998 6.79883C4.45203 5.91323 2.90969 4.67017 1.67297 3.15025C1.0444 4.23398 0.852057 5.51638 1.13503 6.73682C1.418 7.95727 2.15506 9.02418 3.19641 9.72072C2.41463 9.6959 1.64998 9.48541 0.965625 9.10666V9.16759C0.964925 10.3049 1.3581 11.4073 2.07831 12.2875C2.79852 13.1677 3.80132 13.7713 4.91625 13.9957C4.19206 14.1939 3.43198 14.2227 2.69484 14.0801C3.00945 15.0582 3.62157 15.9136 4.44577 16.5271C5.26997 17.1405 6.26512 17.4813 7.29234 17.502C5.54842 18.8718 3.39417 19.6149 1.17656 19.6113C0.783287 19.6107 0.390399 19.5866 0 19.5392C2.25286 20.9845 4.87353 21.7521 7.55016 21.7507Z" fill="black"/>
</g>
<defs>
<clipPath id="clip0_2086_10984">
<rect width="24" height="24" fill="white"/>
</clipPath>
</defs>
</svg>
