<svg width="380" height="549" viewBox="0 0 380 549" fill="none" xmlns="http://www.w3.org/2000/svg">
<g filter="url(#filter0_d_2505_12734)">
<mask id="path-1-outside-1_2505_12734" maskUnits="userSpaceOnUse" x="22.3115" y="0" width="357" height="531" fill="black">
<rect fill="white" x="22.3115" width="357" height="531"/>
<path d="M195.549 57.2578C234.31 57.2578 267.409 66.6214 294.846 85.3485C322.284 104.076 336.002 133.255 336.002 172.887C336.002 189.872 331.865 206.639 323.59 223.189C315.751 239.738 300.726 259.554 278.514 282.636C256.303 305.719 224.075 333.809 181.83 366.908C159.184 384.764 141.327 401.967 128.262 418.517C115.197 434.631 107.14 447.696 104.091 457.713L232.132 460.979C248.246 461.85 260.658 459.237 269.369 453.14C278.079 447.043 282.87 435.502 283.741 418.517H324.897L314.444 525H28.3115C29.6181 496.692 35.4975 471.65 45.9498 449.874C56.4022 428.098 68.5966 409.589 82.533 394.346C96.905 379.103 115.85 361.029 139.368 340.124C174.209 309.638 199.033 281.765 213.841 256.506C229.084 231.246 236.705 205.986 236.705 180.726C236.705 158.515 232.132 140.223 222.986 125.851C213.841 111.044 198.815 103.64 177.911 103.64C166.587 103.64 155.917 106.253 145.9 111.479C135.884 116.705 128.262 123.238 123.036 131.077C126.52 135.433 129.133 140.659 130.875 146.756C133.053 152.853 134.141 158.515 134.141 163.741C134.141 174.193 130.222 183.992 122.383 193.138C114.543 202.284 103.002 206.857 87.7592 206.857C75.1293 206.857 65.3302 202.72 58.362 194.445C51.3938 185.734 47.9097 175.064 47.9097 162.434C47.9097 148.498 53.7891 133.255 65.548 116.706C77.7424 100.156 94.9452 86.2195 117.156 74.8961C139.803 63.1373 165.934 57.2578 195.549 57.2578Z"/>
<path d="M223.34 6C241.951 6 260.329 8.32635 278.475 12.979C297.085 17.6317 313.603 25.076 328.026 35.312C342.914 45.5479 354.546 59.0407 362.921 75.7904C371.296 92.5402 374.785 113.245 373.39 137.904C372.924 149.536 370.133 161.865 365.015 174.893C359.897 187.455 351.289 201.413 339.192 216.767C327.561 231.656 311.044 248.871 289.641 268.412C268.704 287.953 241.718 310.752 208.684 336.807C182.164 357.744 162.39 376.82 149.362 394.035C136.335 411.25 128.425 424.51 125.634 433.816L262.423 437.305C272.659 437.77 281.732 437.072 289.641 435.211C298.016 432.885 304.53 428.465 309.182 421.951C314.3 414.972 317.092 404.969 317.557 391.941H361.525L350.359 505.7H44.6766C46.0724 481.506 50.2598 459.871 57.2389 440.795C64.2179 421.719 73.2907 404.504 84.4571 389.15C96.0889 373.796 108.651 359.605 122.144 346.577C135.637 333.55 149.362 320.755 163.32 308.193C199.146 276.554 224.969 247.94 240.788 222.35C257.072 196.761 265.912 171.403 267.308 146.279C268.239 131.39 266.843 116.967 263.121 103.009C259.864 89.0506 253.35 77.6515 243.579 68.8114C234.274 59.506 220.781 55.086 203.101 55.5512C190.539 55.5512 179.14 58.5755 168.904 64.624C158.668 70.2072 150.991 76.9536 145.873 84.8632C150.525 89.9812 153.782 96.2623 155.643 103.707C157.505 111.151 158.202 117.432 157.737 122.55C157.272 131.39 153.084 140.928 145.175 151.164C137.265 161.4 124.47 166.285 106.79 165.82C92.3667 165.355 81.6655 160.237 74.6865 150.466C68.1727 140.23 65.1484 128.366 65.6137 114.873C66.079 104.172 69.8011 92.7728 76.7802 80.6758C84.2245 68.1135 94.6931 56.2491 108.186 45.0827C121.679 33.4509 137.963 24.1455 157.039 17.1665C176.581 9.72215 198.681 6 223.34 6Z"/>
</mask>
<path d="M195.549 57.2578C234.31 57.2578 267.409 66.6214 294.846 85.3485C322.284 104.076 336.002 133.255 336.002 172.887C336.002 189.872 331.865 206.639 323.59 223.189C315.751 239.738 300.726 259.554 278.514 282.636C256.303 305.719 224.075 333.809 181.83 366.908C159.184 384.764 141.327 401.967 128.262 418.517C115.197 434.631 107.14 447.696 104.091 457.713L232.132 460.979C248.246 461.85 260.658 459.237 269.369 453.14C278.079 447.043 282.87 435.502 283.741 418.517H324.897L314.444 525H28.3115C29.6181 496.692 35.4975 471.65 45.9498 449.874C56.4022 428.098 68.5966 409.589 82.533 394.346C96.905 379.103 115.85 361.029 139.368 340.124C174.209 309.638 199.033 281.765 213.841 256.506C229.084 231.246 236.705 205.986 236.705 180.726C236.705 158.515 232.132 140.223 222.986 125.851C213.841 111.044 198.815 103.64 177.911 103.64C166.587 103.64 155.917 106.253 145.9 111.479C135.884 116.705 128.262 123.238 123.036 131.077C126.52 135.433 129.133 140.659 130.875 146.756C133.053 152.853 134.141 158.515 134.141 163.741C134.141 174.193 130.222 183.992 122.383 193.138C114.543 202.284 103.002 206.857 87.7592 206.857C75.1293 206.857 65.3302 202.72 58.362 194.445C51.3938 185.734 47.9097 175.064 47.9097 162.434C47.9097 148.498 53.7891 133.255 65.548 116.706C77.7424 100.156 94.9452 86.2195 117.156 74.8961C139.803 63.1373 165.934 57.2578 195.549 57.2578Z" fill="#E381E4" shape-rendering="crispEdges"/>
<path d="M323.59 223.189L318.812 220.8L318.787 220.851L318.763 220.902L323.59 223.189ZM181.83 366.908L178.536 362.704L178.529 362.709L178.523 362.714L181.83 366.908ZM128.262 418.517L132.411 421.881L132.433 421.854L132.455 421.827L128.262 418.517ZM104.091 457.713L98.9808 456.158L96.9368 462.874L103.955 463.053L104.091 457.713ZM232.132 460.979L232.42 455.646L232.344 455.642L232.268 455.64L232.132 460.979ZM269.369 453.14L266.305 448.764H266.305L269.369 453.14ZM283.741 418.517V413.175H278.666L278.406 418.243L283.741 418.517ZM324.897 418.517L330.213 419.039L330.788 413.175H324.897V418.517ZM314.444 525V530.342H319.287L319.76 525.522L314.444 525ZM28.3115 525L22.9756 524.754L22.7177 530.342H28.3115V525ZM45.9498 449.874L50.7654 452.185L45.9498 449.874ZM82.533 394.346L78.6465 390.681L78.6184 390.711L78.5908 390.741L82.533 394.346ZM139.368 340.124L135.85 336.104L135.834 336.118L135.819 336.132L139.368 340.124ZM213.841 256.506L209.267 253.746L209.25 253.775L209.232 253.804L213.841 256.506ZM222.986 125.851L218.442 128.658L218.461 128.689L218.48 128.719L222.986 125.851ZM145.9 111.479L148.371 116.215L148.371 116.215L145.9 111.479ZM123.036 131.077L118.591 128.114L116.425 131.364L118.865 134.414L123.036 131.077ZM130.875 146.756L125.739 148.223L125.787 148.39L125.845 148.553L130.875 146.756ZM122.383 193.138L126.438 196.615L122.383 193.138ZM58.362 194.445L54.1909 197.782L54.2329 197.834L54.2761 197.885L58.362 194.445ZM65.548 116.706L61.2477 113.537L61.2203 113.574L61.1936 113.612L65.548 116.706ZM117.156 74.8961L119.582 79.655L119.6 79.646L119.618 79.6368L117.156 74.8961ZM278.475 12.979L277.148 18.1533L277.163 18.1573L277.179 18.1612L278.475 12.979ZM328.026 35.312L324.934 39.6681L324.967 39.6912L325 39.7137L328.026 35.312ZM362.921 75.7904L367.699 73.4016L362.921 75.7904ZM373.39 137.904L368.057 137.602L368.054 137.646L368.052 137.691L373.39 137.904ZM365.015 174.893L369.962 176.908L369.974 176.877L369.987 176.846L365.015 174.893ZM339.192 216.767L334.997 213.461L334.99 213.47L334.983 213.479L339.192 216.767ZM289.641 268.412L286.039 264.467L286.018 264.487L285.996 264.507L289.641 268.412ZM208.684 336.807L205.376 332.613L205.374 332.614L208.684 336.807ZM149.362 394.035L153.622 397.258H153.622L149.362 394.035ZM125.634 433.816L120.517 432.281L118.508 438.977L125.497 439.155L125.634 433.816ZM262.423 437.305L262.665 431.969L262.612 431.967L262.559 431.965L262.423 437.305ZM289.641 435.211L290.865 440.411L290.968 440.387L291.071 440.358L289.641 435.211ZM309.182 421.951L304.875 418.792L304.855 418.819L304.836 418.846L309.182 421.951ZM317.557 391.941V386.6H312.403L312.219 391.751L317.557 391.941ZM361.525 391.941L366.841 392.463L367.417 386.6H361.525V391.941ZM350.359 505.7V511.041H355.202L355.675 506.222L350.359 505.7ZM44.6766 505.7L39.3438 505.392L39.0179 511.041H44.6766V505.7ZM57.2389 440.795L52.2224 438.959L57.2389 440.795ZM84.4571 389.15L80.1994 385.924L80.1679 385.966L80.1372 386.008L84.4571 389.15ZM122.144 346.577L118.434 342.735L122.144 346.577ZM163.32 308.193L159.785 304.189L159.766 304.206L159.747 304.222L163.32 308.193ZM240.788 222.35L236.281 219.483L236.263 219.512L236.244 219.542L240.788 222.35ZM267.308 146.279L261.977 145.946L261.976 145.964L261.975 145.983L267.308 146.279ZM263.121 103.009L257.919 104.223L257.938 104.304L257.959 104.385L263.121 103.009ZM243.579 68.8114L239.802 72.5885L239.897 72.6829L239.996 72.7724L243.579 68.8114ZM203.101 55.5512V60.8928H203.171L203.241 60.891L203.101 55.5512ZM168.904 64.624L171.461 69.3134L171.542 69.2694L171.621 69.2227L168.904 64.624ZM145.873 84.8632L141.388 81.9614L139.154 85.4137L141.92 88.4564L145.873 84.8632ZM157.737 122.55L152.417 122.066L152.408 122.168L152.403 122.269L157.737 122.55ZM145.175 151.164L149.402 154.43L145.175 151.164ZM106.79 165.82L106.618 171.159L106.634 171.16L106.65 171.16L106.79 165.82ZM74.6865 150.466L70.18 153.334L70.2567 153.455L70.3398 153.571L74.6865 150.466ZM65.6137 114.873L60.2771 114.641L60.2761 114.665L60.2753 114.689L65.6137 114.873ZM76.7802 80.6758L72.1848 77.9526L72.1689 77.9795L72.1534 78.0065L76.7802 80.6758ZM108.186 45.0827L111.592 49.1978L111.633 49.1635L111.674 49.1284L108.186 45.0827ZM157.039 17.1665L158.875 22.1829L158.908 22.1707L158.941 22.1581L157.039 17.1665ZM195.549 62.5994C233.419 62.5994 265.426 71.735 291.835 89.7604L297.857 80.9366C269.392 61.5077 235.2 51.9162 195.549 51.9162V62.5994ZM291.835 89.7604C317.519 107.291 330.661 134.63 330.661 172.887H341.344C341.344 131.88 327.048 100.86 297.857 80.9366L291.835 89.7604ZM330.661 172.887C330.661 188.97 326.75 204.925 318.812 220.8L328.368 225.578C336.98 208.354 341.344 190.773 341.344 172.887H330.661ZM318.763 220.902C311.289 236.679 296.729 256.004 274.665 278.933L282.363 286.34C304.722 263.104 320.212 242.798 328.418 225.475L318.763 220.902ZM274.665 278.933C252.704 301.756 220.696 329.671 178.536 362.704L185.125 371.113C227.454 337.948 259.903 309.682 282.363 286.34L274.665 278.933ZM178.523 362.714C155.659 380.741 137.469 398.234 124.069 415.207L132.455 421.827C145.186 405.701 162.708 388.788 185.138 371.103L178.523 362.714ZM124.113 415.153C110.955 431.381 102.343 445.109 98.9808 456.158L109.201 459.268C111.936 450.283 119.438 437.881 132.411 421.881L124.113 415.153ZM103.955 463.053L231.996 466.319L232.268 455.64L104.227 452.373L103.955 463.053ZM231.844 466.313C248.563 467.217 262.351 464.573 272.432 457.516L266.305 448.764C258.966 453.902 247.929 456.484 232.42 455.646L231.844 466.313ZM272.432 457.516C283.135 450.024 288.171 436.432 289.075 418.79L278.406 418.243C277.569 434.572 273.023 444.062 266.305 448.764L272.432 457.516ZM283.741 423.858H324.897V413.175H283.741V423.858ZM319.581 417.995L309.128 524.478L319.76 525.522L330.213 419.039L319.581 417.995ZM314.444 519.658H28.3115V530.342H314.444V519.658ZM33.6475 525.246C34.9266 497.532 40.6724 473.212 50.7654 452.185L41.1343 447.562C30.3226 470.087 24.3095 495.851 22.9756 524.754L33.6475 525.246ZM50.7654 452.185C61.0288 430.803 72.9455 412.748 86.4753 397.95L78.5908 390.741C64.2477 406.429 51.7755 425.393 41.1343 447.562L50.7654 452.185ZM86.4195 398.01C100.645 382.923 119.464 364.963 142.916 344.117L135.819 336.132C112.236 357.095 93.1651 375.283 78.6465 390.681L86.4195 398.01ZM142.885 344.144C177.938 313.473 203.233 285.164 218.449 259.207L209.232 253.804C194.833 278.367 170.48 305.803 135.85 336.104L142.885 344.144ZM218.414 259.265C234.074 233.314 242.047 207.112 242.047 180.726H231.363C231.363 204.86 224.093 229.177 209.267 253.746L218.414 259.265ZM242.047 180.726C242.047 157.802 237.327 138.437 227.493 122.984L218.48 128.719C226.937 142.01 231.363 159.227 231.363 180.726H242.047ZM227.531 123.044C217.204 106.324 200.233 98.2984 177.911 98.2984V108.982C197.397 108.982 210.477 115.763 218.442 128.658L227.531 123.044ZM177.911 98.2984C165.729 98.2984 154.211 101.118 143.43 106.744L148.371 116.215C157.623 111.388 167.446 108.982 177.911 108.982V98.2984ZM143.43 106.744C132.774 112.303 124.406 119.392 118.591 128.114L127.48 134.04C132.118 127.084 138.993 121.108 148.371 116.215L143.43 106.744ZM118.865 134.414C121.85 138.146 124.165 142.714 125.739 148.223L136.011 145.288C134.101 138.603 131.19 132.719 127.207 127.741L118.865 134.414ZM125.845 148.553C127.864 154.206 128.8 159.254 128.8 163.741H139.483C139.483 157.776 138.242 151.501 135.906 144.959L125.845 148.553ZM128.8 163.741C128.8 172.726 125.47 181.328 118.327 189.662L126.438 196.615C134.973 186.657 139.483 175.66 139.483 163.741H128.8ZM118.327 189.662C111.761 197.322 101.889 201.515 87.7592 201.515V212.199C104.115 212.199 117.326 207.246 126.438 196.615L118.327 189.662ZM87.7592 201.515C76.4118 201.515 68.2264 197.866 62.4479 191.004L54.2761 197.885C62.4341 207.573 73.8468 212.199 87.7592 212.199V201.515ZM62.5331 191.108C56.422 183.469 53.2513 174.021 53.2513 162.434H42.568C42.568 176.108 46.3656 188 54.1909 197.782L62.5331 191.108ZM53.2513 162.434C53.2513 150.008 58.5054 135.84 69.9024 119.799L61.1936 113.612C49.0728 130.671 42.568 146.988 42.568 162.434H53.2513ZM69.8483 119.874C81.4561 104.121 97.9558 90.6804 119.582 79.655L114.73 70.1373C91.9345 81.7586 74.0286 96.1913 61.2477 113.537L69.8483 119.874ZM119.618 79.6368C141.391 68.3318 166.653 62.5994 195.549 62.5994V51.9162C165.215 51.9162 138.216 57.9427 114.695 70.1555L119.618 79.6368ZM223.34 11.3416C241.501 11.3416 259.433 13.611 277.148 18.1533L279.801 7.80481C261.225 3.0417 242.401 0.658385 223.34 0.658385V11.3416ZM277.179 18.1612C295.2 22.6664 311.097 29.8483 324.934 39.6681L331.117 30.9559C316.108 20.3038 298.971 12.5971 279.77 7.79691L277.179 18.1612ZM325 39.7137C339.116 49.4186 350.157 62.2073 358.143 78.1793L367.699 73.4016C358.935 55.8742 346.713 41.6773 331.052 30.9103L325 39.7137ZM358.143 78.1793C365.989 93.8713 369.416 113.585 368.057 137.602L378.723 138.206C380.155 112.904 376.602 91.209 367.699 73.4016L358.143 78.1793ZM368.052 137.691C367.615 148.619 364.986 160.359 360.043 172.94L369.987 176.846C375.28 163.372 378.234 150.452 378.727 138.117L368.052 137.691ZM360.068 172.878C355.202 184.822 346.908 198.343 334.997 213.461L343.388 220.073C355.671 204.483 364.592 190.088 369.962 176.908L360.068 172.878ZM334.983 213.479C323.605 228.043 307.325 245.033 286.039 264.467L293.243 272.357C314.762 252.708 331.516 235.269 343.402 220.056L334.983 213.479ZM285.996 264.507C265.205 283.913 238.343 306.611 205.376 332.613L211.992 341.001C245.094 314.892 272.203 291.994 293.286 272.317L285.996 264.507ZM205.374 332.614C178.674 353.694 158.513 373.091 145.103 390.812L153.622 397.258C166.267 380.549 185.654 361.794 211.994 340.999L205.374 332.614ZM145.103 390.812C132.045 408.066 123.606 421.983 120.517 432.281L130.75 435.35C133.244 427.037 140.624 414.434 153.622 397.258L145.103 390.812ZM125.497 439.155L262.287 442.645L262.559 431.965L125.77 428.476L125.497 439.155ZM262.18 442.641C272.787 443.123 282.369 442.41 290.865 440.411L288.418 430.012C281.094 431.735 272.531 432.417 262.665 431.969L262.18 442.641ZM291.071 440.358C300.515 437.735 308.104 432.652 313.529 425.056L304.836 418.846C300.956 424.278 295.517 428.035 288.211 430.065L291.071 440.358ZM313.49 425.11C319.487 416.932 322.41 405.721 322.896 392.132L312.219 391.751C311.774 404.216 309.114 413.012 304.875 418.792L313.49 425.11ZM317.557 397.283H361.525V386.6H317.557V397.283ZM356.209 391.419L345.043 505.178L355.675 506.222L366.841 392.463L356.209 391.419ZM350.359 500.358H44.6766V511.041H350.359V500.358ZM50.0093 506.007C51.3806 482.238 55.4866 461.131 62.2553 442.63L52.2224 438.959C45.033 458.61 40.7641 480.774 39.3438 505.392L50.0093 506.007ZM62.2553 442.63C69.0758 423.987 77.922 407.217 88.7771 392.291L80.1372 386.008C68.6594 401.79 59.36 419.45 52.2224 438.959L62.2553 442.63ZM88.7149 392.375C100.185 377.235 112.565 363.251 125.854 350.42L118.434 342.735C104.738 355.959 91.993 370.357 80.1994 385.924L88.7149 392.375ZM125.854 350.42C139.302 337.436 152.982 324.684 166.894 312.163L159.747 304.222C145.743 316.826 131.972 329.664 118.434 342.735L125.854 350.42ZM166.856 312.197C202.873 280.39 229.124 251.377 245.331 225.159L236.244 219.542C220.813 244.503 195.42 272.719 159.785 304.189L166.856 312.197ZM245.294 225.218C261.969 199.014 271.186 172.784 272.642 146.575L261.975 145.983C260.639 170.023 252.175 194.507 236.281 219.483L245.294 225.218ZM272.639 146.612C273.605 131.167 272.158 116.166 268.282 101.632L257.959 104.385C261.528 117.768 262.873 131.613 261.977 145.946L272.639 146.612ZM268.323 101.795C264.841 86.8753 257.812 74.4846 247.163 64.8504L239.996 72.7724C248.889 80.8184 254.886 91.226 257.919 104.223L268.323 101.795ZM247.356 65.0343C236.695 54.373 221.582 49.7214 202.96 50.2114L203.241 60.891C219.98 60.4505 231.853 64.639 239.802 72.5885L247.356 65.0343ZM203.101 50.2096C189.639 50.2096 177.292 53.4625 166.186 60.0252L171.621 69.2227C180.987 63.6884 191.438 60.8928 203.101 60.8928V50.2096ZM166.346 59.9346C155.512 65.8441 147.091 73.1474 141.388 81.9614L150.357 87.7651C154.89 80.7599 161.824 74.5704 171.461 69.3134L166.346 59.9346ZM141.92 88.4564C145.917 92.8527 148.79 98.3182 150.461 105.002L160.826 102.411C158.774 94.2065 155.134 87.1097 149.825 81.2701L141.92 88.4564ZM150.461 105.002C152.242 112.123 152.809 117.762 152.417 122.066L163.057 123.034C163.596 117.102 162.767 110.179 160.826 102.411L150.461 105.002ZM152.403 122.269C152.015 129.63 148.485 138.144 140.948 147.898L149.402 154.43C157.684 143.712 162.528 133.15 163.071 122.831L152.403 122.269ZM140.948 147.898C134.434 156.328 123.583 160.919 106.931 160.48L106.65 171.16C125.358 171.652 140.097 166.472 149.402 154.43L140.948 147.898ZM106.962 160.481C93.8265 160.058 84.8452 155.498 79.0331 147.362L70.3398 153.571C78.4858 164.975 90.907 170.652 106.618 171.159L106.962 160.481ZM79.193 147.598C73.3227 138.374 70.5197 127.599 70.9522 115.057L60.2753 114.689C59.7772 129.133 63.0227 142.087 70.18 153.334L79.193 147.598ZM70.9503 115.105C71.3687 105.482 74.731 94.9168 81.407 83.3451L72.1534 78.0065C64.8713 90.6288 60.7893 102.862 60.2771 114.641L70.9503 115.105ZM81.3755 83.399C88.4509 71.4593 98.4806 60.0482 111.592 49.1978L104.78 40.9675C90.9055 52.45 79.9981 64.7677 72.1848 77.9526L81.3755 83.399ZM111.674 49.1284C124.615 37.9718 140.319 28.9713 158.875 22.1829L155.204 12.15C135.607 19.3197 118.742 28.93 104.698 41.0369L111.674 49.1284ZM158.941 22.1581C177.777 14.9826 199.217 11.3416 223.34 11.3416V0.658385C198.145 0.658385 175.384 4.46172 155.138 12.1748L158.941 22.1581Z" fill="#E381E4" mask="url(#path-1-outside-1_2505_12734)"/>
</g>
<defs>
<filter id="filter0_d_2505_12734" x="0.717773" y="0.658203" width="378.312" height="547.684" filterUnits="userSpaceOnUse" color-interpolation-filters="sRGB">
<feFlood flood-opacity="0" result="BackgroundImageFix"/>
<feColorMatrix in="SourceAlpha" type="matrix" values="0 0 0 0 0 0 0 0 0 0 0 0 0 0 0 0 0 0 127 0" result="hardAlpha"/>
<feOffset dx="-14" dy="10"/>
<feGaussianBlur stdDeviation="4"/>
<feComposite in2="hardAlpha" operator="out"/>
<feColorMatrix type="matrix" values="0 0 0 0 0.239317 0 0 0 0 0.0090625 0 0 0 0 0.241667 0 0 0 0.25 0"/>
<feBlend mode="normal" in2="BackgroundImageFix" result="effect1_dropShadow_2505_12734"/>
<feBlend mode="normal" in="SourceGraphic" in2="effect1_dropShadow_2505_12734" result="shape"/>
</filter>
</defs>
</svg>
