<svg width="200" height="200" viewBox="0 0 200 200" fill="none" xmlns="http://www.w3.org/2000/svg">
<path d="M71.5994 48.2754H21.5037C18.8916 48.2754 16.5033 46.7996 15.3354 44.4629L10.3447 34.4824L15.3354 24.502C16.5033 22.1652 18.8912 20.6895 21.5037 20.6895H71.5998C74.2119 20.6895 76.6002 22.1652 77.7682 24.502L82.7584 34.4824L77.7678 44.4629C76.5998 46.7996 74.2119 48.2754 71.5994 48.2754Z" fill="#FF3355"/>
<path d="M71.5994 48.2754H21.5037C18.8916 48.2754 16.5033 46.7996 15.3354 44.4629L10.3447 34.4824L15.3354 24.502C16.5033 22.1652 18.8912 20.6895 21.5037 20.6895H71.5998C74.2119 20.6895 76.6002 22.1652 77.7682 24.502L82.7584 34.4824L77.7678 44.4629C76.5998 46.7996 74.2119 48.2754 71.5994 48.2754Z" fill="#FF3355"/>
<path d="M189.655 27.5859H10.3449C8.44062 27.5859 6.89648 29.1301 6.89648 31.0344V48.2758H193.104V31.034C193.104 29.1297 191.559 27.5859 189.655 27.5859Z" fill="#F1C0F2"/>
<path d="M193.104 41.3789H6.89648V48.2754H193.104V41.3789Z" fill="#7D1B7E"/>
<path d="M193.104 34.4824H84.8898C83.584 34.4824 82.3898 35.2203 81.8059 36.3883L77.7684 44.4629C76.6004 46.7996 74.2117 48.2754 71.6 48.2754H21.5039C18.8918 48.2754 16.5035 46.7996 15.3355 44.4629L11.2977 36.3883C10.7137 35.2203 9.51953 34.4824 8.21367 34.4824H6.89648C3.0875 34.4824 0 37.5699 0 41.3789V172.413C0 176.222 3.0875 179.31 6.89648 179.31H193.104C196.913 179.31 200 176.222 200 172.413V41.3789C200 37.5699 196.913 34.4824 193.104 34.4824Z" fill="#FF8095"/>
<path d="M189.655 172.413H10.3449C8.44062 172.413 6.89648 170.869 6.89648 168.965C6.89648 167.061 8.44062 165.517 10.3449 165.517H189.655C191.559 165.517 193.104 167.061 193.104 168.965C193.104 170.87 191.559 172.413 189.655 172.413Z" fill="#FF3355"/>
<path d="M127.586 86.2068H179.31C181.215 86.2068 182.759 84.6627 182.759 82.7584V55.1721C182.759 53.2678 181.215 51.7236 179.31 51.7236H127.586C125.682 51.7236 124.138 53.2678 124.138 55.1721V82.7584C124.138 84.6627 125.682 86.2068 127.586 86.2068Z" fill="#F1C0F2"/>
<path d="M172.413 65.517H134.483C132.578 65.517 131.034 63.9729 131.034 62.0686C131.034 60.1643 132.578 58.6201 134.483 58.6201H172.413C174.318 58.6201 175.862 60.1643 175.862 62.0686C175.862 63.9732 174.318 65.517 172.413 65.517Z" fill="#7D1B7E"/>
<path d="M172.413 79.31H134.483C132.578 79.31 131.034 77.7658 131.034 75.8615C131.034 73.9572 132.578 72.4131 134.483 72.4131H172.413C174.318 72.4131 175.862 73.9572 175.862 75.8615C175.862 77.7662 174.318 79.31 172.413 79.31Z" fill="#7D1B7E"/>
</svg>
