<svg width="408" height="549" viewBox="0 0 408 549" fill="none" xmlns="http://www.w3.org/2000/svg">
<g filter="url(#filter0_d_2505_12757)">
<mask id="path-1-outside-1_2505_12757" maskUnits="userSpaceOnUse" x="22" y="0" width="386" height="531" fill="black">
<rect fill="white" x="22" width="386" height="531"/>
<path d="M147.752 525L149.747 481.091C159.949 480.648 168.597 479.317 175.694 477.099C182.79 474.882 188.334 469.781 192.326 461.798C196.761 453.814 199.422 440.952 200.309 423.211L200.975 404.583H28L31.3264 342.046L272.826 48.6547H313.408L297.441 344.707H362.639L359.313 404.583H294.115L292.784 437.847C292.341 446.274 291.675 453.371 290.788 459.137C290.345 464.459 289.458 470.003 288.127 475.769L338.024 473.773L335.362 525H147.752ZM204.301 343.377L212.95 196.348H212.284L92.5328 342.711L204.301 343.377Z"/>
<path d="M172.733 514.891L174.866 467.982C185.764 467.508 195.003 466.086 202.584 463.717C210.166 461.348 216.088 455.899 220.353 447.37C225.091 438.841 227.934 425.1 228.882 406.147L229.593 386.246H44.7999L48.3536 319.437L306.353 6H349.708L332.65 322.28H402.303L398.749 386.246H329.096L327.675 421.784C327.201 430.786 326.49 438.367 325.543 444.527C325.069 450.213 324.121 456.136 322.7 462.296L376.005 460.164L373.162 514.891H172.733ZM233.146 320.858L242.386 163.785H241.675L113.742 320.148L233.146 320.858Z"/>
</mask>
<path d="M147.752 525L149.747 481.091C159.949 480.648 168.597 479.317 175.694 477.099C182.79 474.882 188.334 469.781 192.326 461.798C196.761 453.814 199.422 440.952 200.309 423.211L200.975 404.583H28L31.3264 342.046L272.826 48.6547H313.408L297.441 344.707H362.639L359.313 404.583H294.115L292.784 437.847C292.341 446.274 291.675 453.371 290.788 459.137C290.345 464.459 289.458 470.003 288.127 475.769L338.024 473.773L335.362 525H147.752ZM204.301 343.377L212.95 196.348H212.284L92.5328 342.711L204.301 343.377Z" fill="#E381E4" shape-rendering="crispEdges"/>
<path d="M147.752 525L142.416 524.757L142.162 530.342H147.752V525ZM149.747 481.091L149.515 475.754L144.633 475.967L144.411 480.849L149.747 481.091ZM175.694 477.099L177.287 482.198L175.694 477.099ZM192.326 461.798L187.656 459.204L187.6 459.305L187.548 459.409L192.326 461.798ZM200.309 423.211L205.644 423.478L205.646 423.44L205.647 423.402L200.309 423.211ZM200.975 404.583L206.313 404.774L206.51 399.241H200.975V404.583ZM28 404.583L22.6659 404.299L22.3667 409.925H28V404.583ZM31.3264 342.046L27.2023 338.651L26.0857 340.008L25.9924 341.762L31.3264 342.046ZM272.826 48.6547V43.3131H270.304L268.701 45.26L272.826 48.6547ZM313.408 48.6547L318.742 48.9424L319.046 43.3131H313.408V48.6547ZM297.441 344.707L292.107 344.42L291.804 350.049H297.441V344.707ZM362.639 344.707L367.973 345.004L368.286 339.366H362.639V344.707ZM359.313 404.583V409.925H364.366L364.646 404.879L359.313 404.583ZM294.115 404.583V399.241H288.982L288.777 404.37L294.115 404.583ZM292.784 437.847L298.118 438.128L298.12 438.095L298.121 438.061L292.784 437.847ZM290.788 459.137L285.509 458.324L285.481 458.508L285.465 458.693L290.788 459.137ZM288.127 475.769L282.922 474.568L281.349 481.386L288.341 481.106L288.127 475.769ZM338.024 473.773L343.358 474.05L343.662 468.201L337.81 468.436L338.024 473.773ZM335.362 525V530.342H340.434L340.697 525.277L335.362 525ZM204.301 343.377L204.269 348.718L209.336 348.748L209.633 343.69L204.301 343.377ZM212.95 196.348L218.282 196.662L218.615 191.007H212.95V196.348ZM212.284 196.348V191.007H209.753L208.15 192.966L212.284 196.348ZM92.5328 342.711L88.3986 339.329L81.3153 347.986L92.501 348.053L92.5328 342.711ZM172.733 514.891L167.397 514.648L167.143 520.232H172.733V514.891ZM174.866 467.982L174.633 462.645L169.751 462.857L169.529 467.739L174.866 467.982ZM202.584 463.717L204.178 468.816L202.584 463.717ZM220.353 447.37L215.684 444.776L215.627 444.878L215.575 444.981L220.353 447.37ZM228.882 406.147L234.217 406.414L234.219 406.376L234.22 406.338L228.882 406.147ZM229.593 386.246L234.931 386.437L235.128 380.905H229.593V386.246ZM44.7999 386.246L39.4658 385.963L39.1666 391.588H44.7999V386.246ZM48.3536 319.437L44.2294 316.042L43.1128 317.399L43.0195 319.153L48.3536 319.437ZM306.353 6V0.658385H303.831L302.228 2.60528L306.353 6ZM349.708 6L355.042 6.28767L355.345 0.658385H349.708V6ZM332.65 322.28L327.316 321.992L327.013 327.621H332.65V322.28ZM402.303 322.28L407.636 322.576L407.949 316.938H402.303V322.28ZM398.749 386.246V391.588H403.802L404.082 386.543L398.749 386.246ZM329.096 386.246V380.905H323.964L323.759 386.033L329.096 386.246ZM327.675 421.784L333.009 422.064L333.011 422.031L333.012 421.997L327.675 421.784ZM325.543 444.527L320.263 443.715L320.235 443.899L320.219 444.084L325.543 444.527ZM322.7 462.296L317.495 461.095L315.921 467.913L322.913 467.633L322.7 462.296ZM376.005 460.164L381.34 460.441L381.643 454.592L375.792 454.826L376.005 460.164ZM373.162 514.891V520.232H378.234L378.497 515.168L373.162 514.891ZM233.146 320.858L233.114 326.2L238.181 326.23L238.479 321.172L233.146 320.858ZM242.386 163.785L247.718 164.098L248.051 158.443H242.386V163.785ZM241.675 163.785V158.443H239.144L237.541 160.402L241.675 163.785ZM113.742 320.148L109.608 316.765L102.524 325.422L113.71 325.489L113.742 320.148ZM153.088 525.243L155.084 481.334L144.411 480.849L142.416 524.757L153.088 525.243ZM149.979 486.428C160.484 485.971 169.619 484.594 177.287 482.198L174.1 472.001C167.575 474.04 159.413 475.324 149.515 475.754L149.979 486.428ZM177.287 482.198C186.042 479.462 192.603 473.188 197.104 464.187L187.548 459.409C184.065 466.374 179.538 470.302 174.1 472.001L177.287 482.198ZM196.995 464.392C202.05 455.294 204.748 441.405 205.644 423.478L194.974 422.944C194.097 440.5 191.473 452.334 187.656 459.204L196.995 464.392ZM205.647 423.402L206.313 404.774L195.636 404.392L194.971 423.021L205.647 423.402ZM200.975 399.241H28V409.925H200.975V399.241ZM33.3341 404.867L36.6605 342.33L25.9924 341.762L22.6659 404.299L33.3341 404.867ZM35.4506 345.441L276.95 52.0494L268.701 45.26L27.2023 338.651L35.4506 345.441ZM272.826 53.9963H313.408V43.3131H272.826V53.9963ZM308.074 48.3671L292.107 344.42L302.775 344.995L318.742 48.9424L308.074 48.3671ZM297.441 350.049H362.639V339.366H297.441V350.049ZM357.306 344.411L353.979 404.287L364.646 404.879L367.973 345.004L357.306 344.411ZM359.313 399.241H294.115V409.925H359.313V399.241ZM288.777 404.37L287.447 437.634L298.121 438.061L299.452 404.797L288.777 404.37ZM287.45 437.567C287.012 445.887 286.36 452.793 285.509 458.324L296.068 459.949C296.991 453.948 297.669 446.662 298.118 438.128L287.45 437.567ZM285.465 458.693C285.045 463.735 284.201 469.025 282.922 474.568L293.332 476.97C294.714 470.981 295.645 465.183 296.111 459.58L285.465 458.693ZM288.341 481.106L338.237 479.11L337.81 468.436L287.914 470.431L288.341 481.106ZM332.689 473.496L330.028 524.723L340.697 525.277L343.358 474.05L332.689 473.496ZM335.362 519.658H147.752V530.342H335.362V519.658ZM209.633 343.69L218.282 196.662L207.617 196.035L198.969 343.063L209.633 343.69ZM212.95 191.007H212.284V201.69H212.95V191.007ZM208.15 192.966L88.3986 339.329L96.667 346.094L216.419 199.731L208.15 192.966ZM92.501 348.053L204.269 348.718L204.333 338.035L92.5646 337.37L92.501 348.053ZM178.069 515.133L180.202 468.224L169.529 467.739L167.397 514.648L178.069 515.133ZM175.098 473.318C186.299 472.831 196.025 471.363 204.178 468.816L200.991 458.619C193.981 460.809 185.228 462.184 174.633 462.645L175.098 473.318ZM204.178 468.816C213.418 465.928 220.357 459.306 225.131 449.759L215.575 444.981C211.82 452.492 206.914 456.768 200.991 458.619L204.178 468.816ZM225.022 449.964C230.38 440.321 233.26 425.553 234.217 406.414L223.547 405.88C222.609 424.648 219.803 437.361 215.684 444.776L225.022 449.964ZM234.22 406.338L234.931 386.437L224.254 386.056L223.544 405.957L234.22 406.338ZM229.593 380.905H44.7999V391.588H229.593V380.905ZM50.1339 386.53L53.6877 319.721L43.0195 319.153L39.4658 385.963L50.1339 386.53ZM52.4777 322.832L310.477 9.39472L302.228 2.60528L44.2294 316.042L52.4777 322.832ZM306.353 11.3416H349.708V0.658385H306.353V11.3416ZM344.374 5.71233L327.316 321.992L337.984 322.567L355.042 6.28767L344.374 5.71233ZM332.65 327.621H402.303V316.938H332.65V327.621ZM396.969 321.983L393.416 385.95L404.082 386.543L407.636 322.576L396.969 321.983ZM398.749 380.905H329.096V391.588H398.749V380.905ZM323.759 386.033L322.337 421.57L333.012 421.997L334.434 386.46L323.759 386.033ZM322.341 421.503C321.872 430.399 321.175 437.79 320.263 443.715L330.822 445.339C331.806 438.945 332.53 431.174 333.009 422.064L322.341 421.503ZM320.219 444.084C319.769 449.489 318.865 455.158 317.495 461.095L327.904 463.497C329.377 457.114 330.369 450.937 330.866 444.971L320.219 444.084ZM322.913 467.633L376.219 465.501L375.792 454.826L322.486 456.958L322.913 467.633ZM370.671 459.886L367.828 514.613L378.497 515.168L381.34 460.441L370.671 459.886ZM373.162 509.549H172.733V520.232H373.162V509.549ZM238.479 321.172L247.718 164.098L237.054 163.471L227.814 320.545L238.479 321.172ZM242.386 158.443H241.675V169.126H242.386V158.443ZM237.541 160.402L109.608 316.765L117.876 323.53L245.809 167.167L237.541 160.402ZM113.71 325.489L233.114 326.2L233.178 315.517L113.774 314.806L113.71 325.489Z" fill="#E381E4" mask="url(#path-1-outside-1_2505_12757)"/>
</g>
<defs>
<filter id="filter0_d_2505_12757" x="0.366699" y="0.658203" width="407.583" height="547.684" filterUnits="userSpaceOnUse" color-interpolation-filters="sRGB">
<feFlood flood-opacity="0" result="BackgroundImageFix"/>
<feColorMatrix in="SourceAlpha" type="matrix" values="0 0 0 0 0 0 0 0 0 0 0 0 0 0 0 0 0 0 127 0" result="hardAlpha"/>
<feOffset dx="-14" dy="10"/>
<feGaussianBlur stdDeviation="4"/>
<feComposite in2="hardAlpha" operator="out"/>
<feColorMatrix type="matrix" values="0 0 0 0 0.239317 0 0 0 0 0.0090625 0 0 0 0 0.241667 0 0 0 0.25 0"/>
<feBlend mode="normal" in2="BackgroundImageFix" result="effect1_dropShadow_2505_12757"/>
<feBlend mode="normal" in="SourceGraphic" in2="effect1_dropShadow_2505_12757" result="shape"/>
</filter>
</defs>
</svg>
