<svg width="257" height="61" viewBox="0 0 257 61" fill="none" xmlns="http://www.w3.org/2000/svg">
<path d="M42.573 40.7615L46.373 34.0853L57.8574 54.1139H65.4574C63.7685 51.3749 47.7241 23.5575 46.373 20.8186L29.8219 49.9199L23.6574 60.79H0.857422C2.12409 58.6502 10.653 43.586 18.8441 29.121C23.6574 20.6474 28.9774 11.1467 34.973 0.790039H42.573L26.8663 28.3507L12.2574 54.1139H19.8574C30.2441 35.5404 36.7463 24.5846 46.373 7.46622C46.9641 8.49332 76.6885 60.7044 76.8574 60.79H54.0574L42.573 40.7615Z" fill="#D542D7"/>
<path d="M108.282 34.1269H113.538V59.9677L83.1133 43.6639V60.3297H77.8574V34.4889L108.282 50.7927V34.1269H108.282ZM126.225 60.3849H121.021V34.4407H126.225V60.3849ZM151.577 46.6908L169.417 34.488V60.3288H164.161V44.5645L151.577 53.1717L138.993 44.5645V60.3288H133.737V34.488L151.577 46.6908ZM195.182 32.79L215.726 60.79H209.12L203.375 52.9863H186.988L181.327 60.79H174.795L195.182 32.79ZM190.93 47.5931H199.433L195.181 41.7767L190.93 47.5931ZM253.542 49.4398C255.722 51.6921 256.899 54.5634 256.856 57.5256L256.818 60.2215L251.563 60.1431L251.601 57.4472C251.623 55.9258 251.004 54.471 249.812 53.2391C247.618 50.9713 243.79 49.7461 239.036 49.7776C234.184 49.8139 230.315 51.0884 228.143 53.3664C227.003 54.5617 226.411 55.9725 226.433 57.4469L226.471 60.1429L221.216 60.2213L221.178 57.5254C221.136 54.6248 222.276 51.8082 224.386 49.5953C225.188 48.7535 226.266 47.8528 227.686 47.0406C226.461 46.347 225.375 45.5208 224.454 44.5684C222.274 42.3161 221.097 39.4448 221.139 36.4826L221.178 33.7867L226.433 33.8651L226.395 36.5611C226.373 38.0824 226.991 39.5372 228.183 40.7691C230.377 43.037 234.206 44.269 238.959 44.2306C243.812 44.1943 247.68 42.9199 249.852 40.6418C250.992 39.4467 251.583 38.0357 251.563 36.5613L251.525 33.8653L256.78 33.7869L256.818 36.4829C256.859 39.3837 255.72 42.2 253.609 44.4129C252.807 45.2541 251.73 46.1547 250.31 46.9669C251.535 47.6609 252.62 48.4874 253.542 49.4396L253.542 49.4398Z" fill="#170317"/>
</svg>
