<svg width="22" height="26" viewBox="0 0 22 26" fill="none" xmlns="http://www.w3.org/2000/svg">
<path d="M20.5125 12.1499L2.525 1.14988C2.37358 1.05647 2.19998 1.00516 2.02211 1.00122C1.84424 0.997287 1.66854 1.04088 1.51314 1.1275C1.35774 1.21411 1.22826 1.34062 1.13805 1.49397C1.04785 1.64732 1.0002 1.82196 1 1.99988V23.9999C1.0002 24.1778 1.04785 24.3524 1.13805 24.5058C1.22826 24.6591 1.35774 24.7856 1.51314 24.8723C1.66854 24.9589 1.84424 25.0025 2.02211 24.9985C2.19998 24.9946 2.37358 24.9433 2.525 24.8499L20.5125 13.8499C20.6602 13.7625 20.7826 13.6382 20.8676 13.4892C20.9526 13.3401 20.9974 13.1715 20.9974 12.9999C20.9974 12.8283 20.9526 12.6596 20.8676 12.5106C20.7826 12.3615 20.6602 12.2372 20.5125 12.1499V12.1499Z" stroke="#7D1B7E" stroke-width="2" stroke-linecap="round" stroke-linejoin="round"/>
</svg>
