<svg width="690" height="690" viewBox="0 0 690 690" fill="none" xmlns="http://www.w3.org/2000/svg">
<path d="M116.593 618.812C171.84 618.812 216.627 601.091 216.627 579.231C216.627 557.371 171.84 539.65 116.593 539.65C61.3465 539.65 16.5601 557.371 16.5601 579.231C16.5601 601.091 61.3465 618.812 116.593 618.812Z" fill="white" stroke="#1A1A1A" stroke-width="3.91722" stroke-linecap="round" stroke-linejoin="round"/>
<path d="M221.418 531.832C223.908 533.544 226.402 535.283 229.009 536.844C239.137 542.91 250.435 547.667 262.467 545.547C664.448 566.123 658.771 485.806 658.771 485.806L74.2036 485.805C74.2036 485.805 111.738 504.359 122.453 510.763C137.104 519.518 155.275 524.9 172.489 525.488C176.981 525.644 181.478 525.468 185.943 524.96C190.379 524.455 194.989 522.639 199.38 522.424C207.264 522.039 215.261 527.599 221.418 531.832Z" fill="white" stroke="#1A1A1A" stroke-width="3.91722" stroke-linecap="round" stroke-linejoin="round"/>
<path d="M626.361 235.712C638.844 235.712 648.964 225.592 648.964 213.108C648.964 200.625 638.844 190.505 626.361 190.505C613.877 190.505 603.757 200.625 603.757 213.108C603.757 225.592 613.877 235.712 626.361 235.712Z" fill="white" stroke="#1A1A1A" stroke-width="3.91722" stroke-linecap="round" stroke-linejoin="round"/>
<path d="M637.128 200.679H615.226V204.227H637.128V200.679Z" fill="#1C0311" stroke="#1A1A1A" stroke-width="1.95861" stroke-linecap="round" stroke-linejoin="round"/>
<path d="M637.128 211.653H615.226V215.202H637.128V211.653Z" fill="#1C0311" stroke="#1A1A1A" stroke-width="1.95861" stroke-linecap="round" stroke-linejoin="round"/>
<path d="M637.128 221.989H615.226V225.538H637.128V221.989Z" fill="#1C0311" stroke="#1A1A1A" stroke-width="1.95861" stroke-linecap="round" stroke-linejoin="round"/>
<path d="M311.402 485.709C420.034 484.879 529.701 486.374 638.333 485.544C655.774 467.54 659.588 441.366 648.517 421.994C636.352 400.707 611.834 397.471 609.003 397.144C594.359 352.115 551.977 328.296 517.752 337.261C483.951 346.115 470.797 383.62 469.682 386.96C445.299 378.247 420.893 383.665 409.391 399.181C403.235 407.486 402.071 416.937 402.059 423.216C376.034 374.606 329.835 360.746 309.178 374.332C293.367 384.731 288.539 413.832 296.142 443.585C290.385 444.8 279.34 447.95 277.404 454.991C274.895 464.112 286.949 476.307 311.402 485.709Z" stroke="#1A1A1A" stroke-width="5.87582" stroke-linecap="round" stroke-linejoin="round"/>
<path d="M90.5513 485.407H542.373C523.373 467.317 502.036 451.853 478.93 439.427C450.787 424.324 369.963 380.948 303.817 415.459C291.564 421.852 275.552 433.142 260.773 454.102C253.199 447.528 226.31 425.835 187.401 426.22C125.714 426.831 92.3152 482.36 90.5513 485.407Z" fill="white" stroke="#1A1A1A" stroke-width="3.91722" stroke-linecap="round" stroke-linejoin="round"/>
<path d="M63.606 485.805H673.44" stroke="#1A1A1A" stroke-width="5.87582" stroke-linecap="round" stroke-linejoin="round"/>
<path d="M327.296 480.841C327.296 481.819 512.252 477.906 512.252 477.906L587.018 498.695L411.591 503.342L327.296 480.841Z" fill="white" stroke="#1A1A1A" stroke-width="3.91722" stroke-linecap="round" stroke-linejoin="round"/>
<path d="M327.296 488.441V480.842L411.591 503.342V520.951L327.296 488.441Z" fill="#1C0311" stroke="#1A1A1A" stroke-width="1.95861" stroke-linecap="round" stroke-linejoin="round"/>
<path d="M587.018 498.695V514.755L411.591 520.951V503.342L587.018 498.695Z" fill="white" stroke="#1A1A1A" stroke-width="3.91722" stroke-linecap="round" stroke-linejoin="round"/>
<path d="M398.059 453.613L388.113 480.842L400.459 483.725L411.591 451.982L398.059 453.613Z" fill="#1C0311" stroke="#1A1A1A" stroke-width="1.95861" stroke-linecap="round" stroke-linejoin="round"/>
<path d="M493.604 450.515V480.842L400.459 483.725L411.591 451.982L493.604 450.515Z" fill="white" stroke="#1A1A1A" stroke-width="3.91722" stroke-linecap="round" stroke-linejoin="round"/>
<path d="M331.044 457.256C331.044 457.256 324.677 457.851 312.432 458.34C300.188 458.828 293.331 445.24 293.331 445.24L261.559 210.669C260.27 201.632 263.779 196.185 271.527 192.752C271.527 192.752 277.867 189.822 284.184 188.166" fill="#1C0311"/>
<path d="M331.044 457.256C331.044 457.256 324.677 457.851 312.432 458.34C300.188 458.828 293.331 445.24 293.331 445.24L261.559 210.669C260.27 201.632 263.779 196.185 271.527 192.752C271.527 192.752 277.867 189.822 284.184 188.166" stroke="#1A1A1A" stroke-width="1.95861" stroke-linecap="round" stroke-linejoin="round"/>
<path d="M566.991 452.018L332.813 457.736C317.558 458.108 303.455 446.296 301.437 431.401L271.5 210.457C269.602 196.449 280.216 185.729 295.091 186.461L523.969 197.729C536.957 198.368 549.221 209.369 551.457 222.345L586.632 426.532C588.998 440.265 580.249 451.694 566.991 452.018Z" fill="white" stroke="#1A1A1A" stroke-width="3.91722" stroke-linecap="round" stroke-linejoin="round"/>
<path d="M541.94 226.344C540.24 216.393 530.832 207.974 520.872 207.512L302 197.364C290.677 196.839 282.63 205.045 284.093 215.724L284.466 218.441L542.373 228.876L541.94 226.344Z" fill="white" stroke="#1A1A1A" stroke-width="3.91722" stroke-linecap="round" stroke-linejoin="round"/>
<path d="M287.685 241.926L312.866 425.647C314.417 436.959 325.125 445.953 336.712 445.708L560.225 440.981C570.375 440.766 577.102 432.061 575.307 421.563L546.112 250.752L287.685 241.926Z" fill="white" stroke="#1A1A1A" stroke-width="3.91722" stroke-linecap="round" stroke-linejoin="round"/>
<path d="M542.373 228.876L284.466 218.441L287.685 241.925L546.112 250.752L542.373 228.876Z" fill="#1C0311" stroke="#1A1A1A" stroke-width="1.95861" stroke-linecap="round" stroke-linejoin="round"/>
<path d="M342.33 236.249L304.218 234.869L303.049 226.479L341.131 227.944L342.33 236.249Z" fill="white" stroke="#1A1A1A" stroke-width="3.91722" stroke-linecap="round" stroke-linejoin="round"/>
<path d="M392.14 238.053L355.066 236.711L353.857 228.434L390.903 229.859L392.14 238.053Z" fill="white" stroke="#1A1A1A" stroke-width="3.91722" stroke-linecap="round" stroke-linejoin="round"/>
<path d="M505.513 242.16L470.75 240.901L469.458 232.883L504.197 234.22L505.513 242.16Z" fill="white" stroke="#1A1A1A" stroke-width="3.91722" stroke-linecap="round" stroke-linejoin="round"/>
<path d="M531.941 239.2C531.415 236.092 528.482 233.478 525.383 233.357C522.28 233.236 520.183 235.663 520.707 238.78C521.23 241.9 524.177 244.521 527.284 244.632C530.385 244.743 532.468 242.309 531.941 239.2Z" fill="white" stroke="#1A1A1A" stroke-width="3.91722" stroke-linecap="round" stroke-linejoin="round"/>
<path d="M499.109 422.313L324.541 425.008L300.415 250.91L472.379 256.385L499.109 422.313Z" fill="white" stroke="#1A1A1A" stroke-width="3.91722" stroke-linecap="round" stroke-linejoin="round"/>
<ellipse cx="407" cy="390.5" rx="22" ry="21.5" fill="#7D1B7E"/>
<path d="M575.235 421.138L508.81 422.163L481.946 256.689L547.484 258.776L575.235 421.138Z" fill="white" stroke="#1A1A1A" stroke-width="3.91722" stroke-linecap="round" stroke-linejoin="round"/>
<path d="M543.285 280.622L494.405 279.378L491.937 264.281L540.756 265.734L543.285 280.622Z" fill="white" stroke="#1A1A1A" stroke-width="3.91722" stroke-linecap="round" stroke-linejoin="round"/>
<path d="M548.446 311.005L499.442 310.187L496.954 294.969L545.897 295.997L548.446 311.005Z" fill="white" stroke="#1A1A1A" stroke-width="3.91722" stroke-linecap="round" stroke-linejoin="round"/>
<path d="M553.649 341.629L504.521 341.247L502.012 325.904L551.079 326.502L553.649 341.629Z" fill="white" stroke="#1A1A1A" stroke-width="3.91722" stroke-linecap="round" stroke-linejoin="round"/>
<path d="M558.893 372.5L509.64 372.559L507.111 357.092L556.303 357.251L558.893 372.5Z" fill="#1C0311" stroke="#1A1A1A" stroke-width="1.95861" stroke-linecap="round" stroke-linejoin="round"/>
<path d="M564.18 403.62L514.801 404.127L512.252 388.533L561.569 388.248L564.18 403.62Z" fill="#1C0311" stroke="#1A1A1A" stroke-width="1.95861" stroke-linecap="round" stroke-linejoin="round"/>
<path d="M256.265 489.981C253.318 487.204 250.23 484.881 250.23 484.881C250.23 484.881 236.843 492.208 237.985 493.511C238.45 494.041 238.726 497.02 238.867 501.092C246.246 501.034 252.491 496.373 256.265 489.981Z" fill="#1C0311" stroke="#1A1A1A" stroke-width="1.95861" stroke-linecap="round" stroke-linejoin="round"/>
<path d="M261.495 496.931C261.194 495.056 258.781 492.353 256.265 489.981C252.491 496.373 246.246 501.034 238.867 501.092C239.074 507.034 238.995 515.304 238.802 521.681C238.475 532.428 242.72 540.407 250.23 539.593C257.74 538.779 262.148 501.002 261.495 496.931Z" fill="white" stroke="#1A1A1A" stroke-width="3.91722" stroke-linecap="round" stroke-linejoin="round"/>
<path d="M210.721 388.809C213.006 422.678 241.659 469.819 245.699 475.437C249.74 481.054 253.046 484.84 253.291 487.527C253.536 490.214 245.577 498.152 237.985 498.152C213.496 493.511 177.742 439.776 148.11 404.36C118.479 368.943 163.049 283.293 168.273 273.197C173.497 263.101 181.987 265.381 181.987 265.381L244.269 276.779" fill="white"/>
<path d="M210.721 388.809C213.006 422.678 241.659 469.819 245.699 475.437C249.74 481.054 253.046 484.84 253.291 487.527C253.536 490.214 245.577 498.152 237.985 498.152C213.496 493.511 177.742 439.776 148.11 404.36C118.479 368.943 163.049 283.293 168.273 273.197C173.497 263.101 181.987 265.381 181.987 265.381L244.269 276.779" stroke="#1A1A1A" stroke-width="3.91722" stroke-linecap="round" stroke-linejoin="round"/>
<path d="M130.175 574.094C131.143 568.919 131.46 564.093 132.922 561.479C135.288 557.252 119.425 558.067 119.425 558.067C119.425 558.067 117.266 566.603 114.63 570.618C118.742 573.788 124.544 574.622 130.175 574.094Z" fill="#1C0311" stroke="#1A1A1A" stroke-width="1.95861" stroke-linecap="round" stroke-linejoin="round"/>
<path d="M114.63 570.617C114.258 571.225 113.788 571.768 113.24 572.222C110.017 574.656 86.7368 585.128 83.4746 601.589C84.1411 606.488 91.0899 609.466 102.744 603.159C114.398 596.852 123.233 591.559 127.213 583.639C128.732 580.616 129.578 577.288 130.175 574.094C124.545 574.622 118.743 573.787 114.63 570.617Z" fill="white" stroke="#1A1A1A" stroke-width="3.91722" stroke-linecap="round" stroke-linejoin="round"/>
<path d="M191.456 312.765C191.456 312.765 175.783 341.587 155.212 388.006C134.642 434.426 112.724 564.466 114.316 567.763C115.907 571.061 124.193 572.485 129.744 569.554C148.029 550.34 187.865 450.034 198.313 420.724C233.251 394.345 261.005 332.794 263.291 313.579C265.576 294.365 255.781 279.059 255.781 279.059L238.785 273.731" fill="white"/>
<path d="M191.456 312.765C191.456 312.765 175.783 341.587 155.212 388.006C134.642 434.426 112.724 564.466 114.316 567.763C115.907 571.061 124.193 572.485 129.744 569.554C148.029 550.34 187.865 450.034 198.313 420.724C233.251 394.345 261.005 332.794 263.291 313.579C265.576 294.365 255.781 279.059 255.781 279.059L238.785 273.731" stroke="#1A1A1A" stroke-width="3.91722" stroke-linecap="round" stroke-linejoin="round"/>
<path d="M175.521 268.776C175.521 268.776 180.338 277.607 190.133 277.607C199.928 277.607 219.677 275.519 226.582 279.373C233.486 283.227 253.718 286.598 257.732 285.314L257.411 280.176L181.784 261.871L175.521 266.016V268.776Z" fill="#1C0311" stroke="#1A1A1A" stroke-width="1.95861" stroke-linecap="round" stroke-linejoin="round"/>
<path d="M177.253 228.011C177.253 228.011 169.171 258.298 180.436 269.045C191.701 279.792 215.292 272.546 224.272 276.454C233.251 280.362 250.72 286.55 261.168 282.316C271.617 278.083 266.883 251.215 266.719 244.539C266.556 237.863 261.658 165.564 261.658 165.564C261.658 165.564 244.355 146.339 209.824 154.567C191.946 176.8 177.253 228.011 177.253 228.011Z" fill="#FF3355" stroke="#1A1A1A" stroke-width="3.91722" stroke-linecap="round" stroke-linejoin="round"/>
<path d="M237.741 138.737C237.741 138.737 235.373 150.176 234.067 151.234L220.194 152.824C220.194 152.824 218.476 162.551 238.965 166.704C252.679 169.635 258.414 162.687 258.414 162.687C258.414 162.687 255.699 159.62 253.169 157.259C252.271 150.339 252.516 140.732 253.005 138.737C253.495 136.742 268.678 122.738 264.76 113.294C260.842 103.85 240.271 94.8939 236.843 96.3594C233.414 97.8249 228.843 109.875 228.843 109.875C228.843 109.875 222.19 138.004 237.741 138.737Z" fill="white" stroke="#1A1A1A" stroke-width="3.91722" stroke-linecap="round" stroke-linejoin="round"/>
<path d="M260.633 164.554C260.633 164.554 291.518 187.302 287.78 212.948C284.757 233.687 277.005 265.544 258.72 268.312C240.434 271.08 216.925 261.961 200.436 227.766C209.252 219.95 210.721 218.129 210.721 218.129C210.721 218.129 225.578 232.814 232.924 234.768C240.271 236.722 261.658 241.607 259.046 213.274" fill="#FF3355"/>
<path d="M260.633 164.554C260.633 164.554 291.518 187.302 287.78 212.948C284.757 233.687 277.005 265.544 258.72 268.312C240.434 271.08 216.925 261.961 200.436 227.766C209.252 219.95 210.721 218.129 210.721 218.129C210.721 218.129 225.578 232.814 232.924 234.768C240.271 236.722 261.658 241.607 259.046 213.274" stroke="#1A1A1A" stroke-width="3.91722" stroke-linecap="round" stroke-linejoin="round"/>
<path d="M245.332 138.37C245.332 138.37 239.841 139.029 237.74 138.736L245.332 138.37Z" fill="white"/>
<path d="M245.332 138.37C245.332 138.37 239.841 139.029 237.74 138.736" stroke="#1A1A1A" stroke-width="3.91722" stroke-linecap="round" stroke-linejoin="round"/>
<path d="M228.863 161.208C228.863 161.208 229.231 153.025 228.312 148.14C228.19 146.186 228.557 145.82 229.843 146.309C229.782 143.133 228.68 137.393 231.924 137.577C235.169 137.76 240.373 140.691 240.312 144.232C240.251 147.774 241.72 154.43 238.108 157.727C234.496 161.025 234.863 164.017 234.863 164.017L228.863 161.208Z" fill="white" stroke="#1A1A1A" stroke-width="3.91722" stroke-linecap="round" stroke-linejoin="round"/>
<path d="M220.194 152.824C216.027 153.736 207.089 153.85 200.844 157.421C180.219 169.214 151.34 196.963 165.171 226.79C177.252 252.843 214.965 227.278 227.21 197.968C227.21 197.968 234.557 182.906 236.189 164.017C235.7 162.552 228.843 159.377 227.21 160.191C225.577 161.005 220.598 167.437 218.516 170.734C216.435 174.032 200.639 196.747 195.007 196.625" fill="#FF3355"/>
<path d="M220.194 152.824C216.027 153.736 207.089 153.85 200.844 157.421C180.219 169.214 151.34 196.963 165.171 226.79C177.252 252.843 214.965 227.278 227.21 197.968C227.21 197.968 234.557 182.906 236.189 164.017C235.7 162.552 228.843 159.377 227.21 160.191C225.577 161.005 220.598 167.437 218.516 170.734C216.435 174.032 200.639 196.747 195.007 196.625" stroke="#1A1A1A" stroke-width="3.91722" stroke-linecap="round" stroke-linejoin="round"/>
<path d="M235.455 107.758C235.455 107.758 228.598 112.969 224.353 109.224C220.108 105.478 219.618 89.6836 231.618 88.3809C239.046 87.1596 244.597 92.1261 244.597 92.1261C244.597 92.1261 253.005 79.6693 262.474 86.834C271.943 93.9986 269.495 102.14 267.046 105.234C264.597 108.328 269.005 109.549 275.698 111.992C282.392 114.434 282.147 127.868 272.188 127.705C268.27 128.357 271.862 132.672 275.045 137.801C278.229 142.93 275.275 149.362 265.405 147.327C255.536 145.291 251.575 136.987 250.943 135.114C254.638 131.043 254.23 124.774 253.25 123.553C258.801 124.774 261.576 120.052 261.25 117.528C260.923 115.004 256.352 109.549 250.475 114.516C244.108 110.445 239.046 105.316 238.72 103.036C236.924 107.514 235.455 107.758 235.455 107.758Z" fill="#1C0311" stroke="#1A1A1A" stroke-width="1.95861" stroke-linecap="round" stroke-linejoin="round"/>
<path d="M609.535 339.426C616.718 339.426 622.542 333.603 622.542 326.42C622.542 319.236 616.718 313.413 609.535 313.413C602.352 313.413 596.528 319.236 596.528 326.42C596.528 333.603 602.352 339.426 609.535 339.426Z" fill="#1C0311" stroke="#1A1A1A" stroke-width="1.95861" stroke-linecap="round" stroke-linejoin="round"/>
<path d="M633.619 290.774C637.344 290.774 640.363 287.754 640.363 284.03C640.363 280.305 637.344 277.286 633.619 277.286C629.895 277.286 626.875 280.305 626.875 284.03C626.875 287.754 629.895 290.774 633.619 290.774Z" stroke="#1A1A1A" stroke-width="5.87582" stroke-linecap="round" stroke-linejoin="round"/>
<path d="M502.012 169.236C515.727 169.236 526.844 158.118 526.844 144.404C526.844 130.69 515.727 119.572 502.012 119.572C488.298 119.572 477.181 130.69 477.181 144.404C477.181 158.118 488.298 169.236 502.012 169.236Z" fill="white" stroke="#1A1A1A" stroke-width="3.91722" stroke-linecap="round" stroke-linejoin="round"/>
<path d="M517.064 156.013L506.33 145.279C506.169 145.116 505.986 144.977 505.785 144.867C507.193 142.677 507.746 140.045 507.34 137.472C506.933 134.9 505.595 132.567 503.581 130.917C501.566 129.267 499.015 128.415 496.413 128.524C493.811 128.632 491.34 129.694 489.469 131.506C487.599 133.318 486.46 135.754 486.269 138.352C486.078 140.949 486.849 143.526 488.435 145.592C490.02 147.658 492.31 149.069 494.868 149.556C497.426 150.044 500.074 149.574 502.308 148.236C502.427 148.462 502.579 148.669 502.759 148.85L513.493 159.584C513.728 159.818 514.006 160.004 514.312 160.131C514.619 160.258 514.947 160.323 515.279 160.323C515.61 160.323 515.939 160.258 516.245 160.131C516.551 160.004 516.83 159.818 517.064 159.584C517.299 159.349 517.485 159.071 517.612 158.765C517.738 158.458 517.804 158.13 517.804 157.798C517.804 157.467 517.738 157.138 517.612 156.832C517.485 156.526 517.299 156.247 517.064 156.013ZM503.535 144.748C502.21 146.319 500.375 147.372 498.351 147.724C496.327 148.076 494.244 147.705 492.467 146.674C490.69 145.643 489.333 144.02 488.634 142.088C487.935 140.157 487.938 138.041 488.643 136.111C489.348 134.182 490.711 132.563 492.491 131.538C494.271 130.512 496.355 130.147 498.378 130.505C500.401 130.864 502.232 131.923 503.552 133.497C504.872 135.072 505.595 137.06 505.594 139.114C505.596 141.177 504.866 143.173 503.535 144.748Z" fill="#1C0311" stroke="#1A1A1A" stroke-width="1.95861" stroke-linecap="round" stroke-linejoin="round"/>
<path d="M247.09 302.986C247.09 302.986 232.338 361.263 198.873 393.376C165.408 425.49 130.175 552.338 130.175 552.338" stroke="#1A1A1A" stroke-width="3.91722" stroke-linecap="round" stroke-linejoin="round" stroke-dasharray="23.5 23.5"/>
<path d="M225.137 294.968C225.137 294.968 219.356 311.909 230.435 323.258L225.137 294.968Z" fill="white"/>
<path d="M225.137 294.968C225.137 294.968 219.356 311.909 230.435 323.258" stroke="#1A1A1A" stroke-width="3.91722" stroke-linecap="round" stroke-linejoin="round"/>
<path d="M72.9405 426.41C72.9405 426.761 72.9549 427.106 72.9767 427.45C69.765 428.169 66.4089 427.869 63.3758 426.591C60.3427 425.314 57.7835 423.122 56.0546 420.321C54.3257 417.521 53.5132 414.251 53.7302 410.967C53.9472 407.683 55.183 404.548 57.2653 401.999C59.3477 399.45 62.173 397.614 65.3479 396.747C68.5228 395.88 71.8891 396.024 74.9782 397.159C78.0673 398.295 80.7253 400.366 82.5822 403.083C84.439 405.801 85.4023 409.03 85.3377 412.32C81.9114 412.76 78.7626 414.433 76.4807 417.026C74.1988 419.619 72.9402 422.955 72.9405 426.41Z" fill="white" stroke="#1A1A1A" stroke-width="3.91722" stroke-linecap="round" stroke-linejoin="round"/>
<path d="M101.351 426.41C101.351 430.087 99.9248 433.621 97.3724 436.269C94.82 438.916 91.3403 440.471 87.6653 440.606C83.9902 440.74 80.4061 439.445 77.6667 436.991C74.9273 434.538 73.246 431.117 72.9766 427.45C76.4325 426.674 79.5286 424.762 81.7696 422.019C84.0105 419.276 85.2668 415.861 85.3376 412.32C87.3394 412.063 89.3731 412.235 91.3031 412.825C93.2331 413.416 95.0151 414.411 96.5304 415.744C98.0457 417.077 99.2594 418.718 100.091 420.557C100.922 422.396 101.352 424.391 101.351 426.41Z" fill="#1C0311" stroke="#1A1A1A" stroke-width="1.95861" stroke-linecap="round" stroke-linejoin="round"/>
<path d="M423.843 120.803V124.467L407.394 149.299H443.628L425.511 124.389V120.803H423.843Z" fill="white" stroke="#1A1A1A" stroke-width="3.91722" stroke-linecap="round" stroke-linejoin="round"/>
<path d="M424.583 71.1875V120.428" stroke="#1A1A1A" stroke-width="3.91722" stroke-linecap="round" stroke-linejoin="round"/>
<path d="M568.336 120.803V124.467L551.887 149.299H588.121L570.004 124.389V120.803H568.336Z" fill="white" stroke="#1A1A1A" stroke-width="3.91722" stroke-linecap="round" stroke-linejoin="round"/>
<path d="M569.076 71.1875V120.428" stroke="#1A1A1A" stroke-width="3.91722" stroke-linecap="round" stroke-linejoin="round"/>
<path d="M53.6985 357.672C66.9015 357.672 77.6046 346.969 77.6046 333.766C77.6046 320.563 66.9015 309.86 53.6985 309.86C40.4956 309.86 29.7925 320.563 29.7925 333.766C29.7925 346.969 40.4956 357.672 53.6985 357.672Z" fill="white" stroke="#1A1A1A" stroke-width="3.91722" stroke-linecap="round" stroke-linejoin="round"/>
<path d="M53.6992 347.007C53.6992 347.007 33.242 336.891 40.2216 326.934C47.0109 317.252 53.6992 328.819 53.6992 328.819C53.6992 328.819 60.3875 317.252 67.1767 326.934C74.1536 336.891 53.6992 347.007 53.6992 347.007Z" fill="white" stroke="#1A1A1A" stroke-width="3.91722" stroke-linecap="round" stroke-linejoin="round"/>
<g clip-path="url(#clip0_2505_12641)">
<rect width="170" height="10" transform="translate(303.25 251.791) rotate(2.16616)" fill="#7D1B7E"/>
<path d="M383.074 260.386L382.882 260.379L382.912 259.604L382.048 259.571L382.018 260.346L381.827 260.339L381.889 258.694L382.081 258.702L382.054 259.403L382.918 259.435L382.945 258.734L383.136 258.742L383.074 260.386ZM384.584 259.824C384.58 259.925 384.564 260.015 384.535 260.093C384.505 260.172 384.465 260.238 384.413 260.29C384.362 260.343 384.3 260.383 384.229 260.41C384.158 260.436 384.078 260.447 383.99 260.443C383.907 260.44 383.832 260.423 383.764 260.392C383.697 260.36 383.639 260.316 383.591 260.259C383.544 260.203 383.507 260.134 383.483 260.054C383.459 259.973 383.449 259.882 383.452 259.781C383.458 259.646 383.485 259.532 383.534 259.439C383.583 259.346 383.651 259.276 383.738 259.23C383.825 259.183 383.928 259.161 384.046 259.166C384.158 259.17 384.256 259.199 384.338 259.252C384.421 259.306 384.483 259.381 384.526 259.478C384.57 259.574 384.589 259.69 384.584 259.824ZM383.646 259.788C383.642 259.887 383.652 259.974 383.676 260.047C383.699 260.121 383.737 260.179 383.791 260.221C383.844 260.263 383.914 260.285 384 260.288C384.085 260.292 384.156 260.274 384.213 260.237C384.27 260.199 384.313 260.144 384.342 260.073C384.371 260.001 384.387 259.915 384.391 259.816C384.394 259.718 384.384 259.633 384.361 259.561C384.337 259.488 384.299 259.431 384.246 259.39C384.192 259.349 384.122 259.326 384.035 259.323C383.907 259.318 383.811 259.357 383.748 259.44C383.686 259.522 383.652 259.638 383.646 259.788ZM386.27 259.25C386.406 259.255 386.507 259.295 386.573 259.368C386.639 259.442 386.669 259.556 386.663 259.713L386.633 260.521L386.448 260.514L386.479 259.715C386.482 259.615 386.464 259.54 386.422 259.489C386.381 259.437 386.318 259.409 386.233 259.406C386.114 259.402 386.026 259.433 385.97 259.5C385.913 259.567 385.882 259.667 385.877 259.802L385.851 260.491L385.665 260.484L385.696 259.686C385.698 259.619 385.691 259.563 385.673 259.518C385.656 259.473 385.628 259.439 385.591 259.416C385.554 259.392 385.507 259.379 385.449 259.377C385.368 259.374 385.301 259.388 385.251 259.42C385.2 259.452 385.162 259.501 385.137 259.566C385.113 259.632 385.099 259.713 385.095 259.809L385.07 260.462L384.884 260.455L384.93 259.222L385.081 259.227L385.103 259.403L385.113 259.403C385.139 259.361 385.172 259.327 385.21 259.299C385.249 259.271 385.292 259.25 385.339 259.237C385.386 259.224 385.435 259.218 385.488 259.22C385.582 259.224 385.659 259.244 385.721 259.282C385.784 259.319 385.828 259.374 385.853 259.446L385.864 259.446C385.907 259.377 385.964 259.326 386.036 259.294C386.108 259.261 386.186 259.247 386.27 259.25ZM387.539 259.298C387.644 259.302 387.733 259.329 387.806 259.378C387.879 259.427 387.934 259.495 387.971 259.58C388.007 259.665 388.024 259.763 388.019 259.875L388.015 259.991L387.163 259.959C387.16 260.103 387.192 260.215 387.259 260.293C387.326 260.372 387.423 260.413 387.549 260.418C387.627 260.421 387.697 260.417 387.757 260.405C387.818 260.393 387.881 260.374 387.946 260.349L387.94 260.513C387.877 260.538 387.814 260.556 387.752 260.567C387.691 260.577 387.619 260.581 387.535 260.578C387.417 260.573 387.314 260.545 387.228 260.494C387.142 260.442 387.076 260.368 387.031 260.272C386.986 260.177 386.966 260.061 386.971 259.925C386.976 259.793 387.002 259.679 387.05 259.584C387.099 259.488 387.165 259.415 387.248 259.366C387.332 259.316 387.429 259.294 387.539 259.298ZM387.531 259.451C387.431 259.447 387.35 259.477 387.289 259.54C387.227 259.603 387.188 259.692 387.172 259.809L387.825 259.834C387.827 259.76 387.818 259.695 387.797 259.639C387.778 259.582 387.746 259.537 387.702 259.505C387.658 259.471 387.601 259.453 387.531 259.451Z" fill="#FCE8FC"/>
<path d="M392.003 259.885C391.996 260.071 391.956 260.224 391.884 260.346C391.812 260.467 391.71 260.557 391.58 260.615C391.45 260.673 391.294 260.698 391.112 260.691L390.665 260.674L390.727 259.029L391.223 259.048C391.391 259.054 391.533 259.091 391.652 259.157C391.77 259.222 391.86 259.316 391.921 259.438C391.982 259.56 392.009 259.709 392.003 259.885ZM391.801 259.885C391.807 259.737 391.787 259.614 391.741 259.516C391.696 259.418 391.626 259.344 391.533 259.294C391.44 259.243 391.325 259.215 391.188 259.21L390.912 259.2L390.862 260.517L391.095 260.526C391.322 260.534 391.494 260.485 391.611 260.378C391.73 260.27 391.793 260.106 391.801 259.885ZM393.395 260.158C393.391 260.259 393.375 260.349 393.345 260.427C393.316 260.506 393.276 260.572 393.224 260.624C393.173 260.677 393.111 260.717 393.039 260.744C392.969 260.769 392.889 260.781 392.8 260.777C392.718 260.774 392.643 260.757 392.575 260.726C392.508 260.694 392.45 260.65 392.402 260.593C392.354 260.537 392.318 260.468 392.294 260.388C392.27 260.307 392.26 260.216 392.263 260.115C392.268 259.98 392.296 259.866 392.345 259.773C392.394 259.68 392.462 259.61 392.549 259.564C392.636 259.517 392.739 259.495 392.857 259.5C392.969 259.504 393.066 259.533 393.149 259.586C393.231 259.64 393.294 259.715 393.337 259.812C393.381 259.908 393.4 260.023 393.395 260.158ZM392.457 260.122C392.453 260.221 392.463 260.308 392.486 260.381C392.51 260.455 392.548 260.513 392.602 260.555C392.655 260.597 392.725 260.619 392.811 260.622C392.896 260.626 392.967 260.608 393.023 260.571C393.08 260.533 393.123 260.478 393.152 260.407C393.181 260.335 393.198 260.249 393.202 260.15C393.205 260.052 393.195 259.967 393.172 259.895C393.148 259.822 393.11 259.765 393.057 259.724C393.003 259.683 392.933 259.66 392.846 259.657C392.718 259.652 392.622 259.691 392.559 259.773C392.497 259.856 392.463 259.972 392.457 260.122ZM394.188 260.83C394.077 260.826 393.98 260.799 393.897 260.75C393.813 260.701 393.75 260.629 393.706 260.533C393.663 260.438 393.644 260.319 393.649 260.176C393.655 260.027 393.684 259.906 393.737 259.814C393.791 259.72 393.863 259.652 393.952 259.61C394.042 259.567 394.142 259.548 394.254 259.553C394.315 259.555 394.374 259.564 394.431 259.578C394.488 259.593 394.535 259.61 394.571 259.63L394.509 259.784C394.472 259.768 394.429 259.753 394.38 259.739C394.331 259.725 394.286 259.717 394.243 259.716C394.158 259.712 394.086 259.728 394.027 259.763C393.97 259.797 393.925 259.85 393.894 259.92C393.864 259.99 393.846 260.077 393.843 260.181C393.839 260.281 393.849 260.367 393.873 260.438C393.898 260.51 393.937 260.565 393.99 260.605C394.043 260.644 394.111 260.665 394.193 260.668C394.258 260.67 394.317 260.666 394.37 260.654C394.423 260.642 394.471 260.627 394.515 260.61L394.508 260.777C394.466 260.796 394.42 260.81 394.368 260.82C394.317 260.829 394.257 260.832 394.188 260.83ZM395.864 259.636L395.817 260.869L395.664 260.863L395.644 260.689L395.634 260.689C395.607 260.73 395.572 260.765 395.531 260.793C395.489 260.82 395.442 260.841 395.391 260.853C395.34 260.866 395.286 260.871 395.229 260.869C395.132 260.866 395.051 260.847 394.986 260.813C394.921 260.779 394.873 260.728 394.842 260.661C394.811 260.594 394.798 260.508 394.802 260.405L394.832 259.597L395.021 259.604L394.991 260.398C394.987 260.501 395.008 260.579 395.052 260.632C395.097 260.684 395.167 260.711 395.262 260.715C395.354 260.718 395.427 260.704 395.482 260.672C395.538 260.639 395.58 260.59 395.606 260.524C395.633 260.458 395.648 260.375 395.652 260.278L395.676 259.629L395.864 259.636ZM397.598 259.679C397.734 259.684 397.835 259.724 397.901 259.798C397.968 259.871 397.998 259.986 397.992 260.142L397.961 260.95L397.777 260.943L397.807 260.144C397.811 260.045 397.792 259.969 397.75 259.918C397.71 259.866 397.647 259.839 397.562 259.835C397.443 259.831 397.355 259.862 397.298 259.929C397.242 259.996 397.211 260.097 397.206 260.231L397.18 260.92L396.994 260.913L397.024 260.115C397.027 260.048 397.019 259.992 397.001 259.947C396.984 259.902 396.957 259.868 396.92 259.845C396.883 259.821 396.836 259.808 396.778 259.806C396.696 259.803 396.63 259.817 396.579 259.849C396.528 259.881 396.49 259.93 396.465 259.996C396.441 260.061 396.427 260.142 396.424 260.238L396.399 260.891L396.212 260.884L396.259 259.651L396.41 259.657L396.431 259.832L396.441 259.832C396.468 259.791 396.5 259.756 396.539 259.728C396.577 259.7 396.62 259.68 396.667 259.666C396.714 259.653 396.764 259.648 396.817 259.65C396.91 259.653 396.988 259.674 397.05 259.711C397.112 259.748 397.156 259.803 397.182 259.875L397.192 259.876C397.235 259.806 397.293 259.755 397.365 259.723C397.436 259.691 397.514 259.676 397.598 259.679ZM398.867 259.727C398.972 259.731 399.061 259.758 399.135 259.807C399.208 259.856 399.263 259.924 399.299 260.009C399.336 260.094 399.352 260.192 399.348 260.304L399.344 260.42L398.492 260.388C398.489 260.533 398.521 260.644 398.587 260.723C398.654 260.801 398.751 260.842 398.878 260.847C398.956 260.85 399.025 260.846 399.086 260.834C399.146 260.822 399.209 260.803 399.275 260.778L399.269 260.942C399.205 260.967 399.143 260.985 399.081 260.996C399.019 261.006 398.947 261.01 398.864 261.007C398.745 261.002 398.643 260.974 398.556 260.923C398.47 260.871 398.405 260.797 398.36 260.702C398.314 260.606 398.294 260.49 398.299 260.354C398.304 260.222 398.331 260.108 398.379 260.013C398.428 259.917 398.493 259.844 398.576 259.795C398.66 259.746 398.757 259.723 398.867 259.727ZM398.859 259.88C398.76 259.876 398.679 259.906 398.617 259.969C398.555 260.032 398.517 260.122 398.501 260.238L399.153 260.263C399.155 260.189 399.146 260.124 399.126 260.068C399.106 260.011 399.075 259.966 399.031 259.934C398.987 259.901 398.93 259.883 398.859 259.88ZM400.27 259.78C400.416 259.786 400.526 259.826 400.598 259.901C400.67 259.975 400.703 260.091 400.697 260.249L400.667 261.052L400.483 261.045L400.512 260.255C400.516 260.152 400.496 260.074 400.45 260.021C400.406 259.969 400.335 259.94 400.238 259.937C400.102 259.931 400.004 259.966 399.946 260.042C399.888 260.117 399.856 260.228 399.85 260.375L399.826 261.021L399.639 261.014L399.685 259.781L399.836 259.786L399.858 259.965L399.868 259.965C399.896 259.923 399.93 259.888 399.972 259.86C400.014 259.832 400.06 259.811 400.111 259.798C400.161 259.784 400.215 259.778 400.27 259.78ZM401.455 260.952C401.486 260.953 401.517 260.951 401.55 260.947C401.582 260.943 401.609 260.938 401.629 260.931L401.624 261.076C401.602 261.085 401.571 261.092 401.532 261.097C401.493 261.103 401.455 261.105 401.419 261.103C401.353 261.101 401.295 261.087 401.242 261.063C401.19 261.038 401.149 260.997 401.118 260.941C401.089 260.885 401.076 260.809 401.08 260.712L401.107 259.981L400.932 259.974L400.935 259.883L401.115 259.817L401.199 259.552L401.312 259.556L401.301 259.842L401.662 259.855L401.656 260.002L401.295 259.988L401.268 260.713C401.265 260.791 401.28 260.849 401.314 260.889C401.349 260.928 401.396 260.949 401.455 260.952ZM402.382 259.862C402.529 259.868 402.636 259.905 402.705 259.974C402.774 260.042 402.806 260.149 402.8 260.294L402.768 261.132L402.632 261.127L402.603 260.943L402.594 260.943C402.558 260.986 402.521 261.023 402.482 261.052C402.443 261.081 402.399 261.102 402.349 261.116C402.299 261.129 402.239 261.134 402.168 261.132C402.093 261.129 402.027 261.113 401.969 261.085C401.912 261.056 401.868 261.015 401.836 260.96C401.805 260.906 401.792 260.838 401.795 260.756C401.799 260.633 401.852 260.54 401.952 260.478C402.052 260.416 402.201 260.385 402.401 260.387L402.614 260.386L402.617 260.311C402.621 260.204 402.601 260.129 402.557 260.084C402.513 260.04 402.449 260.016 402.366 260.013C402.301 260.01 402.239 260.017 402.18 260.034C402.121 260.05 402.065 260.07 402.011 260.094L401.959 259.95C402.016 259.924 402.08 259.902 402.153 259.884C402.226 259.867 402.302 259.859 402.382 259.862ZM402.607 260.517L402.419 260.518C402.265 260.518 402.155 260.539 402.091 260.581C402.026 260.623 401.992 260.685 401.989 260.766C401.987 260.836 402.006 260.889 402.047 260.924C402.089 260.96 402.145 260.979 402.215 260.981C402.325 260.986 402.416 260.959 402.488 260.9C402.56 260.842 402.598 260.753 402.603 260.631L402.607 260.517ZM403.556 261.031C403.587 261.032 403.619 261.031 403.651 261.027C403.684 261.023 403.71 261.017 403.731 261.011L403.725 261.156C403.703 261.165 403.672 261.172 403.633 261.177C403.595 261.182 403.557 261.184 403.52 261.183C403.455 261.18 403.396 261.167 403.344 261.142C403.291 261.117 403.25 261.076 403.22 261.021C403.19 260.965 403.178 260.888 403.181 260.792L403.209 260.06L403.033 260.054L403.037 259.963L403.216 259.896L403.301 259.631L403.413 259.635L403.402 259.921L403.763 259.935L403.758 260.081L403.397 260.067L403.369 260.793C403.366 260.87 403.382 260.929 403.416 260.968C403.45 261.008 403.497 261.029 403.556 261.031ZM404.208 259.952L404.161 261.185L403.974 261.177L404.021 259.945L404.208 259.952ZM404.134 259.487C404.165 259.488 404.191 259.499 404.212 259.52C404.233 259.541 404.244 259.572 404.242 259.614C404.24 259.655 404.228 259.685 404.205 259.705C404.182 259.724 404.156 259.733 404.125 259.732C404.093 259.731 404.066 259.72 404.045 259.699C404.025 259.678 404.015 259.647 404.017 259.605C404.019 259.563 404.03 259.533 404.052 259.514C404.074 259.495 404.102 259.486 404.134 259.487ZM405.644 260.621C405.64 260.722 405.623 260.812 405.594 260.891C405.565 260.969 405.524 261.035 405.473 261.088C405.421 261.141 405.36 261.18 405.288 261.207C405.217 261.233 405.137 261.244 405.049 261.241C404.966 261.238 404.891 261.22 404.823 261.189C404.756 261.157 404.699 261.113 404.65 261.057C404.603 261 404.567 260.931 404.542 260.851C404.518 260.77 404.508 260.679 404.512 260.578C404.517 260.443 404.544 260.329 404.594 260.237C404.643 260.143 404.711 260.073 404.797 260.027C404.885 259.98 404.987 259.959 405.105 259.963C405.218 259.967 405.315 259.996 405.397 260.05C405.48 260.103 405.543 260.178 405.586 260.275C405.629 260.372 405.649 260.487 405.644 260.621ZM404.705 260.586C404.702 260.685 404.711 260.771 404.735 260.845C404.758 260.918 404.797 260.976 404.85 261.018C404.903 261.06 404.973 261.082 405.059 261.086C405.145 261.089 405.216 261.072 405.272 261.034C405.329 260.996 405.372 260.942 405.401 260.87C405.43 260.798 405.446 260.713 405.45 260.614C405.454 260.515 405.444 260.43 405.42 260.358C405.397 260.285 405.358 260.228 405.305 260.187C405.252 260.146 405.182 260.124 405.095 260.12C404.966 260.115 404.871 260.154 404.808 260.237C404.745 260.319 404.711 260.436 404.705 260.586ZM406.574 260.019C406.721 260.024 406.83 260.064 406.902 260.139C406.974 260.213 407.008 260.329 407.002 260.488L406.971 261.291L406.787 261.284L406.817 260.493C406.821 260.39 406.8 260.313 406.755 260.26C406.71 260.207 406.639 260.179 406.543 260.175C406.406 260.17 406.309 260.205 406.25 260.28C406.192 260.355 406.16 260.466 406.154 260.613L406.13 261.259L405.943 261.252L405.99 260.019L406.14 260.025L406.162 260.204L406.172 260.204C406.2 260.161 406.235 260.126 406.276 260.099C406.318 260.07 406.364 260.049 406.415 260.036C406.466 260.022 406.519 260.016 406.574 260.019Z" fill="#FCE8FC"/>
<path d="M410.69 262.432L410.565 261.957L409.845 261.929L409.684 262.394L409.233 262.377L410.005 260.421L410.516 260.441L411.141 262.449L410.69 262.432ZM410.478 261.602L410.352 261.138C410.344 261.107 410.334 261.067 410.32 261.019C410.308 260.97 410.295 260.92 410.281 260.87C410.269 260.819 410.259 260.775 410.251 260.738C410.241 260.774 410.226 260.82 410.208 260.874C410.191 260.927 410.174 260.978 410.158 261.026C410.141 261.074 410.13 261.108 410.123 261.129L409.964 261.582L410.478 261.602ZM412.273 260.952C412.435 260.958 412.562 261.007 412.657 261.099C412.752 261.19 412.796 261.332 412.788 261.526L412.751 262.51L412.34 262.494L412.373 261.613C412.377 261.505 412.36 261.423 412.323 261.366C412.286 261.31 412.226 261.28 412.142 261.277C412.016 261.272 411.929 261.312 411.88 261.395C411.83 261.479 411.803 261.602 411.797 261.763L411.77 262.473L411.358 262.457L411.415 260.948L411.73 260.96L411.778 261.155L411.801 261.156C411.835 261.105 411.877 261.064 411.926 261.033C411.975 261.003 412.03 260.981 412.089 260.968C412.149 260.955 412.21 260.95 412.273 260.952ZM413.644 261.032L413.587 262.541L413.175 262.526L413.232 261.017L413.644 261.032ZM413.461 260.433C413.522 260.435 413.574 260.452 413.617 260.482C413.66 260.512 413.681 260.565 413.678 260.643C413.675 260.719 413.651 260.772 413.605 260.8C413.56 260.827 413.507 260.839 413.446 260.837C413.384 260.834 413.331 260.818 413.288 260.788C413.246 260.756 413.227 260.702 413.229 260.626C413.232 260.548 413.256 260.497 413.3 260.47C413.345 260.443 413.399 260.431 413.461 260.433ZM415.851 261.087C416.022 261.094 416.149 261.143 416.233 261.234C416.318 261.325 416.357 261.467 416.35 261.66L416.312 262.645L415.899 262.629L415.933 261.747C415.937 261.639 415.921 261.557 415.887 261.501C415.852 261.445 415.796 261.415 415.718 261.412C415.609 261.408 415.53 261.444 415.482 261.521C415.433 261.596 415.406 261.707 415.4 261.852L415.371 262.609L414.96 262.593L414.993 261.712C414.996 261.64 414.99 261.579 414.976 261.53C414.961 261.481 414.938 261.443 414.906 261.418C414.873 261.392 414.831 261.379 414.779 261.377C414.702 261.374 414.641 261.391 414.596 261.428C414.551 261.464 414.518 261.519 414.496 261.593C414.475 261.666 414.463 261.756 414.459 261.863L414.432 262.573L414.02 262.558L414.077 261.049L414.392 261.06L414.44 261.256L414.463 261.256C414.495 261.205 414.535 261.165 414.582 261.134C414.63 261.103 414.683 261.081 414.739 261.068C414.795 261.055 414.852 261.05 414.91 261.052C415.021 261.056 415.114 261.077 415.189 261.116C415.265 261.155 415.322 261.213 415.361 261.29L415.397 261.292C415.445 261.216 415.51 261.162 415.594 261.13C415.678 261.098 415.764 261.084 415.851 261.087ZM417.413 261.144C417.615 261.151 417.769 261.201 417.874 261.294C417.978 261.386 418.027 261.522 418.02 261.702L417.982 262.708L417.695 262.697L417.623 262.489L417.612 262.488C417.567 262.541 417.521 262.583 417.475 262.615C417.428 262.648 417.376 262.671 417.317 262.685C417.258 262.699 417.186 262.705 417.102 262.701C417.013 262.698 416.934 262.678 416.864 262.641C416.795 262.604 416.742 262.55 416.704 262.478C416.666 262.406 416.649 262.315 416.653 262.206C416.66 262.046 416.72 261.93 416.836 261.859C416.951 261.786 417.121 261.75 417.347 261.751L417.609 261.753L417.611 261.687C417.614 261.607 417.596 261.548 417.556 261.51C417.516 261.472 417.459 261.451 417.385 261.448C417.312 261.445 417.24 261.453 417.169 261.471C417.098 261.489 417.027 261.513 416.956 261.541L416.83 261.258C416.912 261.219 417.002 261.189 417.102 261.168C417.203 261.148 417.307 261.14 417.413 261.144ZM417.6 261.993L417.44 261.992C417.307 261.991 417.213 262.011 417.159 262.053C417.106 262.096 417.079 262.153 417.076 262.225C417.073 262.288 417.09 262.333 417.126 262.362C417.162 262.389 417.21 262.404 417.269 262.406C417.357 262.41 417.433 262.386 417.495 262.336C417.558 262.287 417.591 262.213 417.595 262.117L417.6 261.993ZM419.055 262.447C419.1 262.448 419.144 262.446 419.186 262.438C419.23 262.431 419.273 262.421 419.316 262.409L419.304 262.716C419.259 262.734 419.204 262.748 419.138 262.758C419.072 262.769 419.001 262.773 418.924 262.77C418.834 262.767 418.753 262.749 418.682 262.718C418.612 262.686 418.558 262.633 418.519 262.559C418.481 262.485 418.465 262.383 418.47 262.253L418.497 261.525L418.3 261.518L418.307 261.344L418.539 261.215L418.67 260.901L418.933 260.911L418.921 261.232L419.343 261.248L419.332 261.557L418.909 261.541L418.882 262.269C418.879 262.326 418.894 262.37 418.925 262.4C418.958 262.429 419.001 262.445 419.055 262.447ZM420.078 261.276L420.021 262.785L419.609 262.769L419.666 261.26L420.078 261.276ZM419.895 260.677C419.956 260.679 420.008 260.695 420.051 260.726C420.094 260.755 420.114 260.809 420.111 260.886C420.109 260.963 420.084 261.015 420.039 261.043C419.994 261.07 419.941 261.082 419.88 261.08C419.818 261.078 419.765 261.061 419.722 261.031C419.68 261 419.66 260.946 419.663 260.869C419.666 260.792 419.69 260.74 419.734 260.714C419.779 260.687 419.833 260.674 419.895 260.677ZM421.854 262.096C421.849 262.222 421.828 262.333 421.79 262.429C421.753 262.525 421.701 262.605 421.634 262.67C421.567 262.734 421.488 262.782 421.396 262.812C421.305 262.843 421.202 262.857 421.089 262.852C420.983 262.848 420.886 262.827 420.798 262.79C420.711 262.752 420.636 262.699 420.573 262.63C420.51 262.56 420.463 262.476 420.431 262.377C420.399 262.279 420.386 262.166 420.391 262.04C420.397 261.873 420.432 261.732 420.496 261.619C420.56 261.505 420.648 261.42 420.76 261.364C420.872 261.307 421.004 261.282 421.156 261.288C421.297 261.293 421.421 261.328 421.528 261.393C421.636 261.457 421.718 261.548 421.776 261.667C421.834 261.785 421.861 261.928 421.854 262.096ZM420.811 262.056C420.807 262.155 420.815 262.239 420.834 262.307C420.853 262.376 420.885 262.428 420.929 262.464C420.974 262.5 421.033 262.519 421.107 262.522C421.18 262.524 421.239 262.51 421.286 262.477C421.333 262.445 421.368 262.395 421.391 262.328C421.415 262.262 421.429 262.179 421.433 262.08C421.437 261.98 421.429 261.897 421.41 261.83C421.392 261.763 421.36 261.712 421.316 261.677C421.271 261.642 421.212 261.623 421.138 261.62C421.029 261.616 420.949 261.65 420.896 261.723C420.845 261.796 420.816 261.907 420.811 262.056ZM423.081 261.361C423.242 261.367 423.37 261.416 423.465 261.508C423.56 261.599 423.603 261.741 423.596 261.935L423.559 262.919L423.147 262.903L423.181 262.022C423.185 261.914 423.168 261.831 423.13 261.775C423.094 261.719 423.034 261.689 422.95 261.686C422.824 261.681 422.736 261.72 422.687 261.804C422.638 261.888 422.61 262.01 422.604 262.171L422.578 262.882L422.166 262.866L422.223 261.357L422.537 261.369L422.585 261.564L422.608 261.565C422.643 261.514 422.684 261.473 422.733 261.442C422.783 261.412 422.838 261.39 422.897 261.377C422.957 261.364 423.018 261.358 423.081 261.361ZM425.053 262.526C425.049 262.629 425.021 262.715 424.97 262.784C424.92 262.852 424.846 262.903 424.749 262.937C424.652 262.969 424.533 262.983 424.391 262.977C424.286 262.973 424.195 262.963 424.12 262.947C424.046 262.93 423.971 262.905 423.896 262.871L423.909 262.53C423.989 262.57 424.076 262.604 424.169 262.632C424.262 262.659 424.345 262.674 424.416 262.677C424.496 262.68 424.553 262.67 424.588 262.648C424.624 262.625 424.643 262.594 424.645 262.555C424.646 262.53 424.639 262.508 424.626 262.487C424.613 262.466 424.584 262.442 424.539 262.415C424.494 262.387 424.424 262.351 424.327 262.306C424.234 262.262 424.158 262.219 424.098 262.177C424.039 262.134 423.996 262.084 423.968 262.028C423.942 261.971 423.93 261.9 423.933 261.815C423.939 261.675 423.996 261.572 424.107 261.506C424.219 261.439 424.365 261.409 424.547 261.416C424.641 261.42 424.73 261.433 424.813 261.455C424.898 261.477 424.985 261.51 425.073 261.555L424.938 261.847C424.864 261.812 424.795 261.783 424.729 261.76C424.664 261.737 424.597 261.724 424.529 261.721C424.469 261.719 424.423 261.725 424.392 261.74C424.36 261.755 424.344 261.779 424.343 261.813C424.342 261.837 424.349 261.859 424.363 261.878C424.379 261.898 424.409 261.92 424.453 261.945C424.498 261.97 424.564 262.001 424.651 262.041C424.735 262.079 424.808 262.119 424.869 262.16C424.931 262.2 424.978 262.249 425.01 262.307C425.042 262.364 425.056 262.437 425.053 262.526Z" fill="#FF8095"/>
<path d="M427.209 259.248L427.082 262.611L427.035 263.856" stroke="#F1C0F2" stroke-width="0.115278"/>
<rect x="429.052" y="259.318" width="15.4556" height="4.61111" rx="2.30556" transform="rotate(2.16616 429.052 259.318)" fill="#FF3355"/>
<path d="M432.045 261.568C432.037 261.785 431.972 261.949 431.849 262.06C431.727 262.17 431.555 262.221 431.334 262.213L430.97 262.199L431.019 260.883L431.423 260.898C431.627 260.906 431.784 260.969 431.893 261.086C432.002 261.204 432.053 261.365 432.045 261.568ZM431.883 261.567C431.889 261.396 431.851 261.265 431.768 261.175C431.686 261.084 431.559 261.036 431.39 261.03L431.167 261.021L431.128 262.072L431.314 262.079C431.496 262.086 431.635 262.047 431.73 261.961C431.825 261.874 431.876 261.743 431.883 261.567ZM433.162 261.787C433.156 261.948 433.11 262.072 433.026 262.159C432.941 262.246 432.828 262.287 432.685 262.282C432.597 262.278 432.519 262.255 432.453 262.211C432.386 262.167 432.335 262.105 432.301 262.027C432.267 261.948 432.251 261.856 432.255 261.753C432.261 261.592 432.306 261.468 432.39 261.382C432.474 261.295 432.587 261.254 432.73 261.26C432.868 261.265 432.976 261.315 433.053 261.41C433.131 261.505 433.168 261.63 433.162 261.787ZM432.41 261.758C432.405 261.884 432.427 261.981 432.475 262.049C432.523 262.117 432.596 262.153 432.693 262.157C432.791 262.16 432.867 262.131 432.919 262.067C432.973 262.003 433.002 261.908 433.007 261.781C433.012 261.656 432.99 261.56 432.941 261.493C432.893 261.426 432.82 261.39 432.721 261.386C432.623 261.383 432.548 261.412 432.496 261.474C432.444 261.537 432.415 261.631 432.41 261.758ZM434.211 262.321L434.052 261.736C434.042 261.7 434.024 261.619 433.997 261.492L433.99 261.492C433.962 261.596 433.938 261.676 433.918 261.733L433.71 262.302L433.537 262.296L433.305 261.299L433.462 261.305C433.516 261.555 433.557 261.746 433.585 261.877C433.614 262.008 433.63 262.096 433.633 262.141L433.64 262.141C433.648 262.107 433.66 262.064 433.677 262.01C433.694 261.956 433.708 261.913 433.72 261.882L433.923 261.323L434.085 261.329L434.24 261.902C434.269 262.006 434.289 262.094 434.298 262.164L434.305 262.165C434.309 262.143 434.316 262.11 434.328 262.065C434.341 262.021 434.413 261.781 434.544 261.346L434.699 261.352L434.389 262.328L434.211 262.321ZM435.515 262.371L435.539 261.733C435.542 261.652 435.526 261.592 435.491 261.551C435.456 261.51 435.4 261.488 435.322 261.485C435.218 261.481 435.142 261.506 435.092 261.56C435.042 261.614 435.014 261.705 435.009 261.833L434.99 262.351L434.84 262.345L434.878 261.359L434.999 261.363L435.018 261.499L435.025 261.5C435.058 261.452 435.102 261.416 435.158 261.392C435.215 261.367 435.277 261.356 435.344 261.358C435.463 261.363 435.552 261.395 435.609 261.455C435.667 261.514 435.694 261.607 435.689 261.733L435.665 262.376L435.515 262.371ZM436.122 262.394L435.972 262.388L436.025 260.988L436.175 260.993L436.122 262.394ZM437.309 261.944C437.303 262.105 437.257 262.229 437.173 262.316C437.089 262.403 436.975 262.444 436.832 262.439C436.744 262.435 436.666 262.412 436.6 262.368C436.533 262.324 436.482 262.262 436.448 262.183C436.414 262.105 436.399 262.013 436.402 261.909C436.409 261.749 436.453 261.625 436.537 261.539C436.621 261.452 436.734 261.411 436.877 261.416C437.015 261.422 437.123 261.472 437.2 261.567C437.279 261.661 437.315 261.787 437.309 261.944ZM436.557 261.915C436.552 262.041 436.574 262.138 436.622 262.206C436.67 262.274 436.743 262.31 436.84 262.314C436.938 262.317 437.014 262.287 437.066 262.224C437.12 262.16 437.149 262.065 437.154 261.938C437.159 261.813 437.137 261.716 437.088 261.65C437.04 261.582 436.967 261.547 436.868 261.543C436.77 261.539 436.695 261.569 436.643 261.631C436.591 261.693 436.562 261.788 436.557 261.915ZM438.159 262.471L438.135 262.329L438.128 262.329C438.076 262.389 438.025 262.429 437.975 262.449C437.926 262.469 437.865 262.478 437.792 262.475C437.694 262.471 437.618 262.443 437.564 262.391C437.511 262.338 437.486 262.265 437.489 262.172C437.497 261.973 437.66 261.875 437.979 261.877L438.147 261.878L438.149 261.817C438.152 261.74 438.137 261.682 438.105 261.644C438.073 261.606 438.021 261.585 437.948 261.582C437.866 261.579 437.772 261.601 437.666 261.647L437.624 261.531C437.674 261.507 437.728 261.488 437.786 261.475C437.845 261.462 437.903 261.457 437.961 261.459C438.079 261.464 438.165 261.493 438.22 261.547C438.275 261.602 438.3 261.687 438.296 261.802L438.27 262.475L438.159 262.471ZM437.826 262.353C437.919 262.356 437.993 262.333 438.047 262.284C438.103 262.235 438.132 262.165 438.136 262.073L438.139 261.984L437.989 261.985C437.87 261.985 437.784 262 437.73 262.031C437.676 262.061 437.648 262.111 437.646 262.18C437.644 262.234 437.658 262.276 437.69 262.305C437.722 262.335 437.767 262.35 437.826 262.353ZM439.255 262.38L439.247 262.379C439.174 262.477 439.069 262.523 438.932 262.518C438.803 262.513 438.704 262.465 438.635 262.374C438.567 262.283 438.536 262.157 438.542 261.994C438.549 261.831 438.589 261.707 438.665 261.619C438.74 261.532 438.842 261.491 438.97 261.496C439.104 261.501 439.205 261.553 439.273 261.653L439.284 261.653L439.281 261.582L439.28 261.513L439.295 261.111L439.444 261.117L439.391 262.517L439.27 262.513L439.255 262.38ZM438.955 262.394C439.057 262.397 439.132 262.373 439.18 262.319C439.228 262.265 439.255 262.176 439.259 262.053L439.261 262.021C439.266 261.881 439.246 261.781 439.202 261.72C439.158 261.658 439.085 261.625 438.983 261.621C438.895 261.618 438.827 261.65 438.777 261.716C438.729 261.782 438.702 261.877 438.697 262.002C438.692 262.128 438.712 262.224 438.756 262.29C438.799 262.356 438.866 262.39 438.955 262.394Z" fill="#FCE8FC"/>
<path d="M440.765 261.153L442.593 261.222L442.524 263.051L440.696 262.982L440.765 261.153Z" stroke="#FCE8FC" stroke-width="0.0144097"/>
<path d="M441.67 261.411L441.629 262.505" stroke="#FCE8FC" stroke-width="0.230556" stroke-linecap="round" stroke-linejoin="round"/>
<path d="M441.13 261.967L441.629 262.505L442.167 262.006" stroke="#FCE8FC" stroke-width="0.230556" stroke-linecap="round" stroke-linejoin="round"/>
<path d="M440.987 262.712L442.254 262.76" stroke="#FCE8FC" stroke-width="0.230556" stroke-linecap="round" stroke-linejoin="round"/>
<g filter="url(#filter0_d_2505_12641)">
<g clip-path="url(#clip1_2505_12641)">
<path d="M448.42 261.896L449.649 261.943M448.402 262.357L449.631 262.404M448.385 262.818L449.614 262.865" stroke="#F2F2F2" stroke-width="0.115278" stroke-linecap="round" stroke-linejoin="round"/>
</g>
<line x1="450.97" y1="261.07" x2="450.865" y2="263.834" stroke="#7D1B7E" stroke-width="0.115278"/>
<path d="M452.771 263.022L452.623 262.597L452.095 262.577L451.918 262.99L451.763 262.984L452.333 261.682L452.462 261.687L452.929 263.028L452.771 263.022ZM452.58 262.458L452.443 262.044C452.425 261.992 452.407 261.928 452.389 261.852C452.373 261.909 452.352 261.972 452.325 262.04L452.155 262.442L452.58 262.458ZM453.481 263.067C453.338 263.062 453.229 263.014 453.154 262.923C453.079 262.832 453.045 262.706 453.051 262.545C453.057 262.38 453.102 262.254 453.184 262.167C453.268 262.08 453.383 262.039 453.53 262.045C453.577 262.047 453.624 262.054 453.671 262.066C453.718 262.078 453.755 262.091 453.781 262.106L453.731 262.231C453.698 262.217 453.663 262.204 453.624 262.195C453.585 262.184 453.551 262.178 453.521 262.177C453.321 262.17 453.216 262.294 453.206 262.549C453.201 262.67 453.222 262.764 453.268 262.831C453.315 262.898 453.386 262.933 453.482 262.936C453.565 262.939 453.65 262.925 453.737 262.893L453.732 263.025C453.665 263.057 453.581 263.071 453.481 263.067ZM454.359 263.1C454.217 263.095 454.108 263.047 454.032 262.956C453.958 262.865 453.923 262.739 453.929 262.578C453.936 262.413 453.98 262.287 454.063 262.2C454.146 262.113 454.261 262.073 454.408 262.078C454.455 262.08 454.503 262.087 454.55 262.099C454.597 262.111 454.633 262.124 454.66 262.139L454.609 262.264C454.577 262.25 454.541 262.238 454.502 262.228C454.464 262.217 454.429 262.211 454.399 262.21C454.199 262.203 454.094 262.327 454.084 262.582C454.08 262.704 454.1 262.797 454.147 262.864C454.193 262.931 454.265 262.966 454.361 262.97C454.443 262.973 454.528 262.958 454.616 262.926L454.611 263.058C454.543 263.09 454.46 263.104 454.359 263.1ZM455.714 262.639C455.708 262.799 455.663 262.924 455.579 263.011C455.494 263.098 455.381 263.139 455.238 263.133C455.15 263.13 455.072 263.106 455.005 263.062C454.938 263.018 454.888 262.957 454.854 262.878C454.819 262.799 454.804 262.708 454.808 262.604C454.814 262.444 454.859 262.32 454.943 262.234C455.027 262.147 455.14 262.106 455.283 262.111C455.421 262.116 455.528 262.167 455.606 262.261C455.684 262.356 455.72 262.482 455.714 262.639ZM454.963 262.61C454.958 262.736 454.98 262.833 455.028 262.901C455.075 262.969 455.148 263.005 455.246 263.008C455.344 263.012 455.419 262.982 455.472 262.919C455.526 262.855 455.555 262.759 455.56 262.633C455.564 262.507 455.542 262.411 455.494 262.345C455.446 262.277 455.372 262.242 455.273 262.238C455.176 262.234 455.101 262.264 455.048 262.326C454.996 262.388 454.968 262.483 454.963 262.61ZM456.136 262.162L456.112 262.801C456.109 262.882 456.125 262.943 456.16 262.984C456.195 263.024 456.252 263.046 456.33 263.049C456.433 263.053 456.509 263.028 456.559 262.973C456.609 262.919 456.636 262.828 456.641 262.7L456.661 262.181L456.81 262.187L456.773 263.173L456.65 263.169L456.633 263.036L456.625 263.035C456.592 263.083 456.548 263.118 456.493 263.142C456.438 263.166 456.376 263.176 456.306 263.174C456.186 263.169 456.097 263.137 456.039 263.078C455.982 263.019 455.956 262.927 455.961 262.801L455.985 262.156L456.136 262.162ZM457.766 263.211L457.79 262.573C457.793 262.493 457.777 262.432 457.742 262.391C457.706 262.35 457.65 262.328 457.572 262.325C457.469 262.321 457.392 262.346 457.342 262.4C457.292 262.454 457.264 262.545 457.26 262.674L457.24 263.191L457.091 263.185L457.128 262.199L457.249 262.204L457.269 262.34L457.276 262.34C457.308 262.292 457.353 262.257 457.409 262.232C457.465 262.207 457.527 262.196 457.595 262.199C457.714 262.203 457.802 262.235 457.86 262.295C457.918 262.355 457.944 262.447 457.939 262.573L457.915 263.217L457.766 263.211ZM458.545 263.135C458.572 263.136 458.597 263.135 458.622 263.133C458.647 263.129 458.666 263.126 458.681 263.122L458.677 263.236C458.66 263.244 458.636 263.249 458.604 263.253C458.573 263.257 458.544 263.258 458.519 263.258C458.328 263.25 458.237 263.146 458.244 262.945L458.266 262.358L458.125 262.353L458.128 262.281L458.272 262.224L458.342 262.016L458.429 262.019L458.42 262.248L458.706 262.259L458.702 262.375L458.416 262.364L458.394 262.945C458.392 263.004 458.404 263.05 458.431 263.083C458.458 263.116 458.496 263.133 458.545 263.135Z" fill="#FDF7FD"/>
<rect x="446.82" y="260.49" width="13.3778" height="3.61111" rx="1.80556" transform="rotate(2.16616 446.82 260.49)" stroke="#E381E4" shape-rendering="crispEdges"/>
</g>
<path d="M408.609 263.043L420.294 263.485L424.622 263.649" stroke="#FF8095" stroke-width="0.230556" stroke-linecap="round"/>
<path d="M319.743 258.187L320.113 257.591L321.092 259.459L321.786 259.485C321.641 259.229 320.272 256.634 320.158 256.379L318.547 258.979L317.946 259.951L315.865 259.872C315.988 259.681 316.818 258.335 317.616 257.042C318.085 256.285 318.604 255.436 319.187 254.511L319.881 254.538L318.351 257L316.928 259.302L317.622 259.328C318.635 257.668 319.266 256.69 320.205 255.16C320.255 255.256 322.789 260.126 322.804 260.134L320.722 260.056L319.743 258.187Z" fill="#D542D7"/>
<path d="M325.765 257.808L326.245 257.826L326.156 260.186L323.434 258.592L323.376 260.114L322.897 260.096L322.986 257.736L325.707 259.33L325.765 257.808L325.765 257.808ZM327.313 260.268L326.837 260.25L326.927 257.881L327.402 257.899L327.313 260.268ZM329.675 259.105L331.346 258.052L331.256 260.412L330.777 260.394L330.831 258.954L329.652 259.697L328.533 258.867L328.479 260.307L327.999 260.288L328.088 257.929L329.675 259.105ZM333.704 257.986L335.483 260.614L334.88 260.591L334.382 259.859L332.886 259.802L332.342 260.495L331.746 260.472L333.704 257.986ZM333.265 259.323L334.041 259.353L333.673 258.807L333.265 259.323ZM338.975 259.708C339.166 259.921 339.264 260.187 339.25 260.458L339.237 260.704L338.757 260.678L338.77 260.432C338.777 260.294 338.726 260.159 338.621 260.042C338.429 259.827 338.084 259.702 337.649 259.689C337.206 259.675 336.849 259.778 336.642 259.979C336.534 260.084 336.475 260.211 336.472 260.345L336.466 260.592L335.986 260.581L335.992 260.334C335.998 260.07 336.112 259.816 336.312 259.622C336.389 259.547 336.49 259.469 336.623 259.4C336.513 259.332 336.417 259.253 336.336 259.163C336.145 258.95 336.047 258.683 336.061 258.413L336.074 258.167L336.554 258.192L336.541 258.438C336.534 258.577 336.585 258.712 336.69 258.829C336.882 259.043 337.228 259.169 337.662 259.182C338.105 259.195 338.462 259.092 338.669 258.892C338.777 258.787 338.836 258.66 338.839 258.525L338.845 258.279L339.325 258.29L339.319 258.536C339.313 258.801 339.199 259.054 338.999 259.249C338.922 259.323 338.821 259.402 338.689 259.471C338.798 259.539 338.894 259.618 338.975 259.708L338.975 259.708Z" fill="#FCE8FC"/>
</g>
<defs>
<filter id="filter0_d_2505_12641" x="445.704" y="259.972" width="15.4642" height="6.07359" filterUnits="userSpaceOnUse" color-interpolation-filters="sRGB">
<feFlood flood-opacity="0" result="BackgroundImageFix"/>
<feColorMatrix in="SourceAlpha" type="matrix" values="0 0 0 0 0 0 0 0 0 0 0 0 0 0 0 0 0 0 127 0" result="hardAlpha"/>
<feOffset dy="0.461111"/>
<feGaussianBlur stdDeviation="0.230556"/>
<feComposite in2="hardAlpha" operator="out"/>
<feColorMatrix type="matrix" values="0 0 0 0 0 0 0 0 0 0 0 0 0 0 0 0 0 0 0.1 0"/>
<feBlend mode="normal" in2="BackgroundImageFix" result="effect1_dropShadow_2505_12641"/>
<feBlend mode="normal" in="SourceGraphic" in2="effect1_dropShadow_2505_12641" result="shape"/>
</filter>
<clipPath id="clip0_2505_12641">
<rect width="170" height="10" fill="white" transform="translate(303.25 251.791) rotate(2.16616)"/>
</clipPath>
<clipPath id="clip1_2505_12641">
<rect width="1.84444" height="1.84444" fill="white" transform="translate(448.13 261.424) rotate(2.16616)"/>
</clipPath>
</defs>
</svg>
